<svg xmlns="http://www.w3.org/2000/svg" xmlns:xlink="http://www.w3.org/1999/xlink" xmlns:lucid="lucid" width="1235.39" height="786"><g transform="translate(-300 -200)" lucid:page-tab-id="0_0"><path d="M0 0h1760v1360H0z" fill="#fff"/><path d="M320 585.67a8 8 0 0 1 8-8h149a8 8 0 0 1 8 8v4.92a17.07 17.07 0 0 1-5 12.07 17.07 17.07 0 0 1-12.07 5H328a8 8 0 0 1-8-8z" fill="#fff"/><path d="M485 577.67v20l-10 10H320" stroke="#333" fill="none"/><path d="M320 585.67a8 8 0 0 1 8-8h1179.4a8 8 0 0 1 8 8V932a8 8 0 0 1-8 8H328a8 8 0 0 1-8-8z" stroke="#333" fill="none"/><use xlink:href="#a" transform="matrix(1,0,0,1,328,577.6655519423589) translate(4.932098765432087 18.555555555555557)"/><use xlink:href="#b" transform="matrix(1,0,0,1,328,577.6655519423589) translate(55.25308641975308 18.555555555555557)"/><use xlink:href="#c" transform="matrix(1,0,0,1,328,577.6655519423589) translate(79.94444444444444 18.555555555555557)"/><use xlink:href="#d" transform="matrix(1,0,0,1,332,615.6655519423589) translate(5.382716049382708 18.555555555555557)"/><use xlink:href="#e" transform="matrix(1,0,0,1,332,615.6655519423589) translate(36.888888888888886 18.555555555555557)"/><use xlink:href="#f" transform="matrix(1,0,0,1,332,615.6655519423589) translate(75.40740740740742 18.555555555555557)"/><use xlink:href="#g" transform="matrix(1,0,0,1,332,615.6655519423589) translate(90.22222222222223 18.555555555555557)"/><path d="M698.7 342.45v10.1m.03 10.12l.04 20.23m.02 10.1l.03 20.23m.02 10.12l.05 20.22m.02 10.1l.04 20.24m.02 10.12l.04 20.22m.02 10.1l.04 20.24m.02 10.1l.05 20.23m.02 10.12l.04 20.23m.03 10.1l.04 20.23m.02 10.12l.03 20.22m.02 10.1l.05 20.24m.02 10.1l.04 20.23m.02 10.1l.04 20.23m.02 10.1l.04 20.23m.02 10.1l.05 20.24m.02 10.1l.04 20.23m.03 10.12l.04 20.22m.02 10.1l.03 20.23m.02 10.12l.04 20.22m.02 10.1l.04 20.24m.02 10.1l.02 10.12" stroke="#333" fill="none"/><path d="M699.2 342.46h-1v-.5h1z" stroke="#333" stroke-width=".05" fill="#333"/><path d="M700 979.5v.5" stroke="#333" fill="none"/><path d="M679.76 417.73a8 8 0 0 1 8-8h24a8 8 0 0 1 8 8V532a8 8 0 0 1-8 8h-24a8 8 0 0 1-8-8z" stroke="#f2f2f2" fill="#ced4db"/><path d="M1055.04 342.45v10.1m0 10.12v20.23m0 10.1v20.23m0 10.12v20.22m0 10.1v20.24m0 10.12v20.22m0 10.1v20.24m0 10.1v20.23m0 10.12v20.23m0 10.1v20.23m0 10.12v20.22m0 10.1v20.24m0 10.1v20.23m0 10.1v20.23m0 10.1v20.23m0 10.1v20.24m0 10.1v20.23m0 10.12v20.22m0 10.1v20.23m0 10.12v20.22m0 10.1v20.24m0 10.1v10.12" stroke="#333" fill="none"/><path d="M1055.54 342.46h-1v-.5h1z" stroke="#333" stroke-width=".05" fill="#333"/><path d="M1055.04 979.5v.5" stroke="#333" fill="none"/><path d="M1035.04 608a8 8 0 0 1 8-8h24a8 8 0 0 1 8 8v264a8 8 0 0 1-8 8h-24a8 8 0 0 1-8-8z" stroke="#f2f2f2" fill="#ced4db"/><path d="M603.65 228a8 8 0 0 1 8-8h174.07a8 8 0 0 1 8 8v106a8 8 0 0 1-8 8H611.65a8 8 0 0 1-8-8z" stroke="#000" stroke-opacity="0" fill="#c3f7c8"/><use xlink:href="#h" transform="matrix(1,0,0,1,611.6496896262572,228) translate(33.52469135802468 56.55555555555555)"/><use xlink:href="#i" transform="matrix(1,0,0,1,611.6496896262572,228) translate(74.31481481481481 56.55555555555555)"/><path d="M960 228a8 8 0 0 1 8-8h174.08a8 8 0 0 1 8 8v106a8 8 0 0 1-8 8H968a8 8 0 0 1-8-8z" stroke="#000" stroke-opacity="0" fill="#fff7a1"/><use xlink:href="#j" transform="matrix(1,0,0,1,967.9999999999999,228) translate(20.01851851851852 56.55555555555555)"/><use xlink:href="#k" transform="matrix(1,0,0,1,967.9999999999999,228) translate(109.69753086419753 56.55555555555555)"/><path d="M720.67 420.4h156.16v-.02h140.28" stroke="#3a414a" fill="none"/><path d="M720.68 420.9h-.5v-1h.5z" stroke="#3a414a" stroke-width=".05" fill="#3a414a"/><path d="M1031.87 420.38l-14.27 4.64v-9.27z" stroke="#3a414a" fill="#3a414a"/><use xlink:href="#l" transform="matrix(1,0,0,1,825.5990024355139,394.7822493777507) translate(0.005000000000002558 14.4)"/><use xlink:href="#m" transform="matrix(1,0,0,1,825.5990024355139,394.7822493777507) translate(53.605000000000004 14.4)"/><path d="M760 434.27a8 8 0 0 1 8-8h224a8 8 0 0 1 8 8V492a8 8 0 0 1-8 8H768a8 8 0 0 1-8-8z" stroke="#000" stroke-opacity="0" fill="#fff" fill-opacity="0"/><use xlink:href="#n" transform="matrix(1,0,0,1,765.0000000000002,431.27134357933653) translate(0 14.841796875)"/><use xlink:href="#o" transform="matrix(1,0,0,1,765.0000000000002,431.27134357933653) translate(48.807942708333336 14.841796875)"/><use xlink:href="#p" transform="matrix(1,0,0,1,765.0000000000002,431.27134357933653) translate(0 29.75290798611111)"/><use xlink:href="#q" transform="matrix(1,0,0,1,765.0000000000002,431.27134357933653) translate(48.807942708333336 29.75290798611111)"/><use xlink:href="#r" transform="matrix(1,0,0,1,765.0000000000002,431.27134357933653) translate(97.61588541666667 29.75290798611111)"/><use xlink:href="#s" transform="matrix(1,0,0,1,765.0000000000002,431.27134357933653) translate(122.01985677083334 29.75290798611111)"/><use xlink:href="#t" transform="matrix(1,0,0,1,765.0000000000002,431.27134357933653) translate(0 44.66401909722222)"/><use xlink:href="#u" transform="matrix(1,0,0,1,765.0000000000002,431.27134357933653) translate(32.53862847222222 44.66401909722222)"/><use xlink:href="#v" transform="matrix(1,0,0,1,765.0000000000002,431.27134357933653) translate(48.80794270833333 44.66401909722222)"/><use xlink:href="#w" transform="matrix(1,0,0,1,765.0000000000002,431.27134357933653) translate(65.07725694444444 44.66401909722222)"/><use xlink:href="#x" transform="matrix(1,0,0,1,765.0000000000002,431.27134357933653) translate(0 59.575130208333334)"/><use xlink:href="#y" transform="matrix(1,0,0,1,765.0000000000002,431.27134357933653) translate(81.34657118055556 59.575130208333334)"/><path d="M1033.96 388a8 8 0 0 1 8-8h24a8 8 0 0 1 8 8v164a8 8 0 0 1-8 8h-24a8 8 0 0 1-8-8z" stroke="#f2f2f2" fill="#ced4db"/><path d="M1375.04 342.45v10.1m0 10.12v20.23m0 10.1v20.23m0 10.12v20.22m0 10.1v20.24m0 10.12v20.22m0 10.1v20.24m0 10.1v20.23m0 10.12v20.23m0 10.1v20.23m0 10.12v20.22m0 10.1v20.24m0 10.1v20.23m0 10.1v20.23m0 10.1v20.23m0 10.1v20.24m0 10.1v20.23m0 10.12v20.22m0 10.1v20.23m0 10.12v20.22m0 10.1v20.24m0 10.1v10.12" stroke="#333" fill="none"/><path d="M1375.54 342.46h-1v-.5h1z" stroke="#333" stroke-width=".05" fill="#333"/><path d="M1375.04 979.5v.5" stroke="#333" fill="none"/><path d="M1280 228a8 8 0 0 1 8-8h174.08a8 8 0 0 1 8 8v106a8 8 0 0 1-8 8H1288a8 8 0 0 1-8-8z" stroke="#000" stroke-opacity="0" fill="#f4d9ff"/><use xlink:href="#z" transform="matrix(1,0,0,1,1288.0000000000002,228) translate(58.907407407407405 56.55555555555555)"/><path d="M1353.96 618a8 8 0 0 1 8-8h24a8 8 0 0 1 8 8v124a8 8 0 0 1-8 8h-24a8 8 0 0 1-8-8zM679.76 768a8 8 0 0 1 8-8h24a8 8 0 0 1 8 8v74.27a8 8 0 0 1-8 8h-24a8 8 0 0 1-8-8z" stroke="#f2f2f2" fill="#ced4db"/><path d="M1075.96 652.86h138.5l.02.02h122.63" stroke="#3a414a" fill="none"/><path d="M1075.97 653.36h-.5v-1h.5z" stroke="#3a414a" stroke-width=".05" fill="#3a414a"/><path d="M1351.87 652.88l-14.26 4.64v-9.27z" stroke="#3a414a" fill="#3a414a"/><g><use xlink:href="#A" transform="matrix(1,0,0,1,1110.2740879911669,627.2640796700528) translate(0.0049999999999954525 14.4)"/><use xlink:href="#B" transform="matrix(1,0,0,1,1110.2740879911669,627.2640796700528) translate(41.605 14.4)"/><use xlink:href="#C" transform="matrix(1,0,0,1,1110.2740879911669,627.2640796700528) translate(90.555 14.4)"/><use xlink:href="#D" transform="matrix(1,0,0,1,1110.2740879911669,627.2640796700528) translate(146.505 14.4)"/></g><path d="M1353.04 714.32h-138.52-122.66" stroke="#3a414a" fill="none"/><path d="M1353.54 714.82h-.5v-1h.5z" stroke="#3a414a" stroke-width=".05" fill="#3a414a"/><path d="M1077.1 714.3l14.26-4.62v9.27z" stroke="#3a414a" fill="#3a414a"/><g><use xlink:href="#E" transform="matrix(1,0,0,1,1150.6092076996579,718.3234577433367) translate(0.005000000000002558 14.4)"/><use xlink:href="#F" transform="matrix(1,0,0,1,1150.6092076996579,718.3234577433367) translate(31.905 14.4)"/><use xlink:href="#G" transform="matrix(1,0,0,1,1150.6092076996579,718.3234577433367) translate(92.805 14.4)"/></g><path d="M1034.1 791.04H736.6" stroke="#3a414a" fill="none"/><path d="M1034.6 791.54h-.5v-1h.5z" stroke="#3a414a" stroke-width=".05" fill="#3a414a"/><path d="M721.8 791.04l14.28-4.63v9.28z" stroke="#3a414a" fill="#3a414a"/><g><use xlink:href="#l" transform="matrix(1,0,0,1,781.6748104452323,795.0413250260264) translate(0.0049999999999954525 14.4)"/><use xlink:href="#H" transform="matrix(1,0,0,1,781.6748104452323,795.0413250260264) translate(53.605 14.4)"/><use xlink:href="#I" transform="matrix(1,0,0,1,781.6748104452323,795.0413250260264) translate(31.83 36)"/><use xlink:href="#F" transform="matrix(1,0,0,1,781.6748104452323,795.0413250260264) translate(63.73 36)"/><use xlink:href="#G" transform="matrix(1,0,0,1,781.6748104452323,795.0413250260264) translate(124.63000000000001 36)"/></g><path d="M1033.04 520.4h-296.4" stroke="#3a414a" fill="none"/><path d="M1033.54 520.9h-.5v-1h.5z" stroke="#3a414a" stroke-width=".05" fill="#3a414a"/><path d="M721.87 520.4l14.27-4.64v9.27z" stroke="#3a414a" fill="#3a414a"/><g><use xlink:href="#J" transform="matrix(1,0,0,1,827.4470032890993,524.3974092190949) translate(0.005000000000002558 14.4)"/><use xlink:href="#K" transform="matrix(1,0,0,1,827.4470032890993,524.3974092190949) translate(35.005 14.4)"/></g><defs><path fill="#333" d="M11 0l48-248h184l-5 28H87l-15 79h140l-5 27H67L50-27h158l-5 27H11" id="L"/><path fill="#333" d="M89 0H52L20-190h33L74-25l89-165h34" id="M"/><path fill="#333" d="M111-194c62-3 86 47 72 106H45c-7 38 6 69 45 68 27-1 43-14 53-32l24 11C152-15 129 4 87 4 38 3 12-23 12-71c0-70 32-119 99-123zm44 81c14-66-71-72-95-28-4 8-8 17-11 28h106" id="N"/><path fill="#333" d="M66-151c12-25 30-51 66-40l-6 26C45-176 58-65 38 0H6l36-190h30" id="O"/><path fill="#333" d="M198-190L69 30C53 58 25 83-20 72c4-11-1-27 19-22 33-1 43-29 59-52L20-190h32L79-34l84-156h35" id="P"/><g id="a"><use transform="matrix(0.04938271604938272,0,0,0.04938271604938272,0,0)" xlink:href="#L"/><use transform="matrix(0.04938271604938272,0,0,0.04938271604938272,11.851851851851853,0)" xlink:href="#M"/><use transform="matrix(0.04938271604938272,0,0,0.04938271604938272,20.74074074074074,0)" xlink:href="#N"/><use transform="matrix(0.04938271604938272,0,0,0.04938271604938272,30.617283950617285,0)" xlink:href="#O"/><use transform="matrix(0.04938271604938272,0,0,0.04938271604938272,36.49382716049383,0)" xlink:href="#P"/></g><path fill="#333" d="M9 0l6-27h63l36-188-63 39 6-31 66-41h29L110-27h60l-5 27H9" id="Q"/><path fill="#333" d="M16-82c0-90 25-169 113-169 48 0 68 33 68 82C197-79 170 4 84 4 37 4 16-31 16-82zm30 5c0 32 11 55 40 55 69 0 76-79 80-149 2-32-10-55-39-55-69 0-81 81-81 149" id="R"/><g id="b"><use transform="matrix(0.04938271604938272,0,0,0.04938271604938272,0,0)" xlink:href="#Q"/><use transform="matrix(0.04938271604938272,0,0,0.04938271604938272,9.876543209876544,0)" xlink:href="#R"/></g><path fill="#333" d="M248-111c6-24 9-61-24-58-72 9-57 108-77 169h-31l26-142c3-37-50-30-64-10C52-115 50-51 37 0H6l36-190h30c-1 10-6 24-4 32 13-43 101-52 105 5 13-22 29-41 61-41 90 0 28 129 23 194h-31" id="S"/><path fill="#333" d="M50-231l6-30h32l-6 30H50zM6 0l37-190h31L37 0H6" id="T"/><path fill="#333" d="M67-158c22-48 132-52 116 29L158 0h-32l25-140c3-38-53-32-70-12C52-117 51-52 38 0H6l36-190h30" id="U"/><path fill="#333" d="M67 3c-93-2-31-127-26-193h32L48-50c-3 39 53 32 70 12 30-34 30-101 43-152h32L157 0h-30c1-10 6-24 4-33-14 20-29 37-64 36" id="V"/><path fill="#333" d="M51-54c-9 22 5 41 31 30L79-1C43 14 10-4 19-52l22-115H19l5-23h22l19-43h21l-9 43h35l-4 23H73" id="W"/><path fill="#333" d="M55-144c13 50 104 24 104 88C159 21 15 23 1-39l26-10c6 40 102 42 102-4-13-50-104-23-104-87 0-71 143-71 148-8l-29 4c-5-35-85-37-89 0" id="X"/><g id="c"><use transform="matrix(0.04938271604938272,0,0,0.04938271604938272,0,0)" xlink:href="#S"/><use transform="matrix(0.04938271604938272,0,0,0.04938271604938272,14.765432098765434,0)" xlink:href="#T"/><use transform="matrix(0.04938271604938272,0,0,0.04938271604938272,18.666666666666668,0)" xlink:href="#U"/><use transform="matrix(0.04938271604938272,0,0,0.04938271604938272,28.543209876543212,0)" xlink:href="#V"/><use transform="matrix(0.04938271604938272,0,0,0.04938271604938272,38.41975308641976,0)" xlink:href="#W"/><use transform="matrix(0.04938271604938272,0,0,0.04938271604938272,43.35802469135803,0)" xlink:href="#N"/><use transform="matrix(0.04938271604938272,0,0,0.04938271604938272,53.23456790123457,0)" xlink:href="#X"/></g><path fill="#333" d="M87-220l-18 92h140l-5 28H64L45 0H11l48-248h178l-5 28H87" id="Y"/><path fill="#333" d="M30-147c31-64 166-65 159 27C183-49 158 1 86 4 9 8 1-88 30-147zM88-20c53 0 68-48 68-100 0-31-11-51-44-50-52 1-68 46-68 97 0 32 13 53 44 53" id="Z"/><g id="d"><use transform="matrix(0.04938271604938272,0,0,0.04938271604938272,0,0)" xlink:href="#Y"/><use transform="matrix(0.04938271604938272,0,0,0.04938271604938272,10.814814814814815,0)" xlink:href="#Z"/><use transform="matrix(0.04938271604938272,0,0,0.04938271604938272,20.69135802469136,0)" xlink:href="#O"/></g><path fill="#333" d="M124 0L87-78 21 0h-35l86-98-46-92h33l34 74 61-74h37l-83 92 50 98h-34" id="aa"/><g id="e"><use transform="matrix(0.04938271604938272,0,0,0.04938271604938272,0,0)" xlink:href="#U"/><use transform="matrix(0.04938271604938272,0,0,0.04938271604938272,9.876543209876544,0)" xlink:href="#N"/><use transform="matrix(0.04938271604938272,0,0,0.04938271604938272,19.75308641975309,0)" xlink:href="#aa"/><use transform="matrix(0.04938271604938272,0,0,0.04938271604938272,28.641975308641978,0)" xlink:href="#W"/></g><path fill="#333" d="M148-71c0-36-31-44-71-41l5-28c46 3 81-6 81-50 0-23-15-35-39-35-30 0-49 17-56 41l-32-3c12-39 42-63 90-64 43 0 69 19 71 60 1 43-30 58-65 66 27 5 49 22 49 53 0 85-133 99-164 35-4-7-7-15-9-22l29-9c8 25 25 45 58 45 34 1 53-17 53-48" id="ab"/><use transform="matrix(0.04938271604938272,0,0,0.04938271604938272,0,0)" xlink:href="#ab" id="f"/><path fill="#333" d="M67-158c15-20 31-36 64-36 94 0 33 127 27 194h-32l25-140c3-38-53-32-70-12C52-117 51-51 37 0H6l51-261h31" id="ac"/><g id="g"><use transform="matrix(0.04938271604938272,0,0,0.04938271604938272,0,0)" xlink:href="#ac"/><use transform="matrix(0.04938271604938272,0,0,0.04938271604938272,9.876543209876544,0)" xlink:href="#Z"/><use transform="matrix(0.04938271604938272,0,0,0.04938271604938272,19.75308641975309,0)" xlink:href="#V"/><use transform="matrix(0.04938271604938272,0,0,0.04938271604938272,29.629629629629633,0)" xlink:href="#O"/><use transform="matrix(0.04938271604938272,0,0,0.04938271604938272,35.50617283950618,0)" xlink:href="#X"/></g><path fill="#333" d="M137-103V0h-34v-103L8-248h37l75 118 75-118h37" id="ad"/><path fill="#333" d="M100-194c62-1 85 37 85 99 1 63-27 99-86 99S16-35 15-95c0-66 28-99 85-99zM99-20c44 1 53-31 53-75 0-43-8-75-51-75s-53 32-53 75 10 74 51 75" id="ae"/><path fill="#333" d="M84 4C-5 8 30-112 23-190h32v120c0 31 7 50 39 49 72-2 45-101 50-169h31l1 190h-30c-1-10 1-25-2-33-11 22-28 36-60 37" id="af"/><path fill="#333" d="M114-163C36-179 61-72 57 0H25l-1-190h30c1 12-1 29 2 39 6-27 23-49 58-41v29" id="ag"/><g id="h"><use transform="matrix(0.04938271604938272,0,0,0.04938271604938272,0,0)" xlink:href="#ad"/><use transform="matrix(0.04938271604938272,0,0,0.04938271604938272,10.222222222222223,0)" xlink:href="#ae"/><use transform="matrix(0.04938271604938272,0,0,0.04938271604938272,20.098765432098766,0)" xlink:href="#af"/><use transform="matrix(0.04938271604938272,0,0,0.04938271604938272,29.97530864197531,0)" xlink:href="#ag"/><path fill="#333" d="M-.9 1.23H41.7v1.3H-.9z"/></g><path fill="#333" d="M115-194c53 0 69 39 70 98 0 66-23 100-70 100C84 3 66-7 56-30L54 0H23l1-261h32v101c10-23 28-34 59-34zm-8 174c40 0 45-34 45-75 0-40-5-75-45-74-42 0-51 32-51 76 0 43 10 73 51 73" id="ah"/><path fill="#333" d="M141-36C126-15 110 5 73 4 37 3 15-17 15-53c-1-64 63-63 125-63 3-35-9-54-41-54-24 1-41 7-42 31l-33-3c5-37 33-52 76-52 45 0 72 20 72 64v82c-1 20 7 32 28 27v20c-31 9-61-2-59-35zM48-53c0 20 12 33 32 33 41-3 63-29 60-74-43 2-92-5-92 41" id="ai"/><path fill="#333" d="M96-169c-40 0-48 33-48 73s9 75 48 75c24 0 41-14 43-38l32 2c-6 37-31 61-74 61-59 0-76-41-82-99-10-93 101-131 147-64 4 7 5 14 7 22l-32 3c-4-21-16-35-41-35" id="aj"/><path fill="#333" d="M143 0L79-87 56-68V0H24v-261h32v163l83-92h37l-77 82L181 0h-38" id="ak"/><path fill="#333" d="M100-194c63 0 86 42 84 106H49c0 40 14 67 53 68 26 1 43-12 49-29l28 8c-11 28-37 45-77 45C44 4 14-33 15-96c1-61 26-98 85-98zm52 81c6-60-76-77-97-28-3 7-6 17-6 28h103" id="al"/><path fill="#333" d="M117-194c89-4 53 116 60 194h-32v-121c0-31-8-49-39-48C34-167 62-67 57 0H25l-1-190h30c1 10-1 24 2 32 11-22 29-35 61-36" id="am"/><path fill="#333" d="M85-194c31 0 48 13 60 33l-1-100h32l1 261h-30c-2-10 0-23-3-31C134-8 116 4 85 4 32 4 16-35 15-94c0-66 23-100 70-100zm9 24c-40 0-46 34-46 75 0 40 6 74 45 74 42 0 51-32 51-76 0-42-9-74-50-73" id="an"/><g id="i"><use transform="matrix(0.04938271604938272,0,0,0.04938271604938272,0,0)" xlink:href="#ah"/><use transform="matrix(0.04938271604938272,0,0,0.04938271604938272,9.876543209876544,0)" xlink:href="#ai"/><use transform="matrix(0.04938271604938272,0,0,0.04938271604938272,19.75308641975309,0)" xlink:href="#aj"/><use transform="matrix(0.04938271604938272,0,0,0.04938271604938272,28.641975308641978,0)" xlink:href="#ak"/><use transform="matrix(0.04938271604938272,0,0,0.04938271604938272,37.53086419753087,0)" xlink:href="#al"/><use transform="matrix(0.04938271604938272,0,0,0.04938271604938272,47.40740740740741,0)" xlink:href="#am"/><use transform="matrix(0.04938271604938272,0,0,0.04938271604938272,57.283950617283956,0)" xlink:href="#an"/><path fill="#333" d="M-.9 1.23h68.95v1.3H-.9z"/></g><path fill="#333" d="M127-220V0H93v-220H8v-28h204v28h-85" id="ao"/><path fill="#333" d="M24 0v-261h32V0H24" id="ap"/><path fill="#333" d="M210-169c-67 3-38 105-44 169h-31v-121c0-29-5-50-35-48C34-165 62-65 56 0H25l-1-190h30c1 10-1 24 2 32 10-44 99-50 107 0 11-21 27-35 58-36 85-2 47 119 55 194h-31v-121c0-29-5-49-35-48" id="aq"/><path fill="#333" d="M59-47c-2 24 18 29 38 22v24C64 9 27 4 27-40v-127H5v-23h24l9-43h21v43h35v23H59v120" id="ar"/><path fill="#333" d="M24-231v-30h32v30H24zM24 0v-190h32V0H24" id="as"/><g id="j"><use transform="matrix(0.04938271604938272,0,0,0.04938271604938272,0,0)" xlink:href="#ao"/><use transform="matrix(0.04938271604938272,0,0,0.04938271604938272,8.839506172839506,0)" xlink:href="#al"/><use transform="matrix(0.04938271604938272,0,0,0.04938271604938272,18.71604938271605,0)" xlink:href="#ap"/><use transform="matrix(0.04938271604938272,0,0,0.04938271604938272,22.617283950617285,0)" xlink:href="#al"/><use transform="matrix(0.04938271604938272,0,0,0.04938271604938272,32.49382716049383,0)" xlink:href="#aq"/><use transform="matrix(0.04938271604938272,0,0,0.04938271604938272,47.25925925925927,0)" xlink:href="#ai"/><use transform="matrix(0.04938271604938272,0,0,0.04938271604938272,57.135802469135804,0)" xlink:href="#ar"/><use transform="matrix(0.04938271604938272,0,0,0.04938271604938272,62.074074074074076,0)" xlink:href="#as"/><use transform="matrix(0.04938271604938272,0,0,0.04938271604938272,65.97530864197532,0)" xlink:href="#aj"/><use transform="matrix(0.04938271604938272,0,0,0.04938271604938272,74.8641975308642,0)" xlink:href="#ai"/><path fill="#333" d="M-.9 1.23h91.47v1.3H-.9z"/></g><path fill="#333" d="M30-248c87 1 191-15 191 75 0 78-77 80-158 76V0H30v-248zm33 125c57 0 124 11 124-50 0-59-68-47-124-48v98" id="at"/><g id="k"><use transform="matrix(0.04938271604938272,0,0,0.04938271604938272,0,0)" xlink:href="#at"/><use transform="matrix(0.04938271604938272,0,0,0.04938271604938272,11.851851851851853,0)" xlink:href="#ae"/><use transform="matrix(0.04938271604938272,0,0,0.04938271604938272,21.7283950617284,0)" xlink:href="#ap"/><use transform="matrix(0.04938271604938272,0,0,0.04938271604938272,25.629629629629633,0)" xlink:href="#ap"/><use transform="matrix(0.04938271604938272,0,0,0.04938271604938272,29.530864197530867,0)" xlink:href="#al"/><use transform="matrix(0.04938271604938272,0,0,0.04938271604938272,39.40740740740741,0)" xlink:href="#ag"/><path fill="#333" d="M-.9 1.23h47.07v1.3H-.9z"/></g><path fill="#3a414a" d="M30-248c87 1 191-15 191 75 0 78-77 80-158 76V0H30v-248zm33 125c57 0 124 11 124-50 0-59-68-47-124-48v98" id="au"/><path fill="#3a414a" d="M140-251c81 0 123 46 123 126C263-46 219 4 140 4 59 4 17-45 17-125s42-126 123-126zm0 227c63 0 89-41 89-101s-29-99-89-99c-61 0-89 39-89 99S79-25 140-24" id="av"/><path fill="#3a414a" d="M185-189c-5-48-123-54-124 2 14 75 158 14 163 119 3 78-121 87-175 55-17-10-28-26-33-46l33-7c5 56 141 63 141-1 0-78-155-14-162-118-5-82 145-84 179-34 5 7 8 16 11 25" id="aw"/><path fill="#3a414a" d="M127-220V0H93v-220H8v-28h204v28h-85" id="ax"/><g id="l"><use transform="matrix(0.05,0,0,0.05,0,0)" xlink:href="#au"/><use transform="matrix(0.05,0,0,0.05,12,0)" xlink:href="#av"/><use transform="matrix(0.05,0,0,0.05,26,0)" xlink:href="#aw"/><use transform="matrix(0.05,0,0,0.05,38,0)" xlink:href="#ax"/></g><path fill="#3a414a" d="M0 4l72-265h28L28 4H0" id="ay"/><path fill="#3a414a" d="M115-194c55 1 70 41 70 98S169 2 115 4C84 4 66-9 55-30l1 105H24l-1-265h31l2 30c10-21 28-34 59-34zm-8 174c40 0 45-34 45-75s-6-73-45-74c-42 0-51 32-51 76 0 43 10 73 51 73" id="az"/><path fill="#3a414a" d="M100-194c62-1 85 37 85 99 1 63-27 99-86 99S16-35 15-95c0-66 28-99 85-99zM99-20c44 1 53-31 53-75 0-43-8-75-51-75s-53 32-53 75 10 74 51 75" id="aA"/><path fill="#3a414a" d="M24 0v-261h32V0H24" id="aB"/><path fill="#3a414a" d="M100-194c63 0 86 42 84 106H49c0 40 14 67 53 68 26 1 43-12 49-29l28 8c-11 28-37 45-77 45C44 4 14-33 15-96c1-61 26-98 85-98zm52 81c6-60-76-77-97-28-3 7-6 17-6 28h103" id="aC"/><path fill="#3a414a" d="M114-163C36-179 61-72 57 0H25l-1-190h30c1 12-1 29 2 39 6-27 23-49 58-41v29" id="aD"/><g id="m"><use transform="matrix(0.05,0,0,0.05,0,0)" xlink:href="#ay"/><use transform="matrix(0.05,0,0,0.05,5,0)" xlink:href="#az"/><use transform="matrix(0.05,0,0,0.05,15,0)" xlink:href="#aA"/><use transform="matrix(0.05,0,0,0.05,25,0)" xlink:href="#aB"/><use transform="matrix(0.05,0,0,0.05,28.950000000000003,0)" xlink:href="#aB"/><use transform="matrix(0.05,0,0,0.05,32.9,0)" xlink:href="#aC"/><use transform="matrix(0.05,0,0,0.05,42.9,0)" xlink:href="#aD"/></g><path fill="#3a414a" d="M622-1349c296 4 497 117 497 404 0 282-193 424-485 431H353V0H162v-1349h460zm-15 684c195-3 320-88 320-277 0-184-129-255-328-254H353v531h254" id="aE"/><path fill="#3a414a" d="M615-1102c343 0 484 203 482 560-1 347-147 562-488 562-336 0-475-219-479-562-4-349 156-560 485-560zm-8 989c240 0 301-180 301-429 0-245-55-427-290-427-236 0-299 181-299 427 0 243 61 429 288 429" id="aF"/><path fill="#3a414a" d="M736-142h380V0H134v-142h422v-1200H267v-142h469v1342" id="aG"/><path fill="#3a414a" d="M496 0v-299h235V0H496zm0-783v-299h235v299H496" id="aH"/><g id="n"><use transform="matrix(0.006618923611111111,0,0,0.006618923611111111,0,0)" xlink:href="#aE"/><use transform="matrix(0.006618923611111111,0,0,0.006618923611111111,8.134657118055555,0)" xlink:href="#aF"/><use transform="matrix(0.006618923611111111,0,0,0.006618923611111111,16.26931423611111,0)" xlink:href="#aG"/><use transform="matrix(0.006618923611111111,0,0,0.006618923611111111,24.403971354166664,0)" xlink:href="#aG"/><path fill="#3a414a" d="M-.68 2.88h33.9v.56H-.7z"/><use transform="matrix(0.006618923611111111,0,0,0.006618923611111111,32.53862847222222,0)" xlink:href="#aH"/></g><path fill="#3a414a" d="M614-1226c-167 1-283 53-283 213 0 183 186 193 334 234 230 63 463 120 463 409 0 286-219 387-518 390C309 23 131-98 79-338l185-37c34 165 149 248 351 246 184-2 324-58 324-238 0-203-207-221-372-266-210-57-422-111-422-377 0-267 201-356 470-360 279-5 430 101 480 324l-188 33c-28-141-121-215-293-213" id="aI"/><path fill="#3a414a" d="M102-681c0-398 126-689 513-689 165 0 291 58 379 174s132 287 132 515c-1 318-88 554-298 657-123 61-317 58-438-3-206-104-288-341-288-654zm749 406c94-160 97-656-5-807-57-85-130-132-231-132-104 0-178 47-234 132-101 153-99 655 1 809 57 89 130 138 232 138 109 0 184-49 237-140" id="aJ"/><path fill="#3a414a" d="M650-1214c-281 0-336 244-336 533 0 295 60 546 347 546 188 0 263-142 322-282l159 65C1058-155 935 20 659 20c-401 0-546-295-546-701 0-407 135-689 536-689 264 0 391 146 466 335l-168 65c-47-129-127-244-297-244" id="aK"/><path fill="#3a414a" d="M259 363l169-662h265L382 363H259" id="aL"/><path fill="#3a414a" d="M839-1102c70 0 148 7 206 17v167c-112-18-268-36-363 15-129 69-208 203-208 395V0H294c-10-367 32-789-52-1082h171c21 75 41 161 48 250h5c67-152 152-270 373-270" id="aM"/><path fill="#3a414a" d="M1000-272c3 95 12 159 101 161 21 0 41-3 59-7V-6c-44 10-86 16-139 16-141 2-191-84-197-217h-6C748-76 648 20 446 20c-207 0-318-120-318-322 0-266 194-348 454-354l236-4c12-191-40-305-222-305-140 0-220 47-232 172l-188-17c33-204 181-292 423-292 255 0 401 118 401 364v466zm-683-27c0 109 63 184 175 182 166-3 259-96 306-217 24-65 20-120 20-200-232 7-501-28-501 235" id="aN"/><path fill="#3a414a" d="M706-1102c241 0 344 136 343 381V0H868v-695c1-168-57-273-220-268-190 6-283 138-283 336V0H185c-3-360 6-732-6-1082h170c4 54 7 126 8 185h3c63-121 164-204 346-205" id="aO"/><path fill="#3a414a" d="M1048-32c-2 300-135 456-433 456-222-1-358-88-400-267l184-25c22 99 100 157 222 156 184-2 248-125 248-315 0-64 3-133-2-194C807-100 706-13 524-12c-306 0-381-228-381-537 0-318 85-550 400-550 164 0 271 83 325 202h3c1-60 3-134 12-185h171c-13 339-4 702-6 1050zM585-145c210-8 284-178 284-406 0-192-52-331-177-392-33-16-69-22-104-22-223 2-259 184-259 414 0 229 31 415 256 406" id="aP"/><path fill="#3a414a" d="M617-1102c355 0 481 238 477 599H322c5 222 84 388 301 388 144 0 244-59 284-166l158 45C1002-72 854 20 623 20c-342 0-490-220-490-568 0-346 151-554 484-554zm291 461c-18-192-90-328-289-328-194 0-287 128-295 328h584" id="aQ"/><path fill="#3a414a" d="M631 20c-350 0-501-215-501-562 0-355 162-560 502-560 250 0 399 118 446 323l-192 14c-23-124-109-196-262-196-242 0-305 171-305 415 1 245 61 427 304 427 151 0 248-77 267-215l190 12C1039-107 883 20 631 20" id="aR"/><path fill="#3a414a" d="M682 16c-209 0-323-80-324-285v-671H190v-142h170l58-282h120v282h432v142H538v652c2 114 60 155 182 155 106 0 209-16 297-34v137C921-4 806 16 682 16" id="aS"/><path fill="#3a414a" d="M745-142h380V0H143v-142h422v-798H246v-142h499v940zM545-1292v-192h200v192H545" id="aT"/><g id="o"><use transform="matrix(0.006618923611111111,0,0,0.006618923611111111,0,0)" xlink:href="#aI"/><use transform="matrix(0.006618923611111111,0,0,0.006618923611111111,8.134657118055555,0)" xlink:href="#aJ"/><use transform="matrix(0.006618923611111111,0,0,0.006618923611111111,16.26931423611111,0)" xlink:href="#aK"/><use transform="matrix(0.006618923611111111,0,0,0.006618923611111111,24.403971354166664,0)" xlink:href="#aL"/><use transform="matrix(0.006618923611111111,0,0,0.006618923611111111,32.53862847222222,0)" xlink:href="#aM"/><use transform="matrix(0.006618923611111111,0,0,0.006618923611111111,40.67328559027778,0)" xlink:href="#aN"/><use transform="matrix(0.006618923611111111,0,0,0.006618923611111111,48.807942708333336,0)" xlink:href="#aO"/><use transform="matrix(0.006618923611111111,0,0,0.006618923611111111,56.942599826388886,0)" xlink:href="#aP"/><use transform="matrix(0.006618923611111111,0,0,0.006618923611111111,65.07725694444444,0)" xlink:href="#aQ"/><use transform="matrix(0.006618923611111111,0,0,0.006618923611111111,73.2119140625,0)" xlink:href="#aL"/><use transform="matrix(0.006618923611111111,0,0,0.006618923611111111,81.34657118055556,0)" xlink:href="#aG"/><use transform="matrix(0.006618923611111111,0,0,0.006618923611111111,89.48122829861111,0)" xlink:href="#aF"/><use transform="matrix(0.006618923611111111,0,0,0.006618923611111111,97.61588541666667,0)" xlink:href="#aR"/><use transform="matrix(0.006618923611111111,0,0,0.006618923611111111,105.75054253472223,0)" xlink:href="#aN"/><use transform="matrix(0.006618923611111111,0,0,0.006618923611111111,113.88519965277777,0)" xlink:href="#aS"/><use transform="matrix(0.006618923611111111,0,0,0.006618923611111111,122.01985677083333,0)" xlink:href="#aT"/><use transform="matrix(0.006618923611111111,0,0,0.006618923611111111,130.15451388888889,0)" xlink:href="#aF"/><use transform="matrix(0.006618923611111111,0,0,0.006618923611111111,138.28917100694443,0)" xlink:href="#aO"/></g><path fill="#3a414a" d="M385-1193v494h676v158H385V0H194v-1349h891v156H385" id="aU"/><path fill="#3a414a" d="M530 26c-303-6-392-228-392-558 0-187 33-329 98-424s162-142 293-142c178 0 273 69 334 184 1-56 3-122 12-169h175c-6 88-6 180-6 282V425H863c1-202-4-411 4-607h-2C805-59 713 29 530 26zm47-139c234 0 286-193 286-441 0-238-55-411-284-411-223 0-255 198-255 427 0 227 33 425 253 425" id="aV"/><g id="p"><use transform="matrix(0.006618923611111111,0,0,0.006618923611111111,0,0)" xlink:href="#aU"/><use transform="matrix(0.006618923611111111,0,0,0.006618923611111111,8.134657118055555,0)" xlink:href="#aM"/><use transform="matrix(0.006618923611111111,0,0,0.006618923611111111,16.26931423611111,0)" xlink:href="#aQ"/><use transform="matrix(0.006618923611111111,0,0,0.006618923611111111,24.403971354166664,0)" xlink:href="#aV"/><path fill="#3a414a" d="M-.68 2.88h33.9v.56H-.7z"/><use transform="matrix(0.006618923611111111,0,0,0.006618923611111111,32.53862847222222,0)" xlink:href="#aH"/></g><path fill="#3a414a" d="M715 0H502L69-1082h202c94 253 197 500 285 758 19 57 36 126 52 183 96-335 234-626 350-941h201" id="aW"/><path fill="#3a414a" d="M168 279c222 39 310-114 368-290L66-1082h192c120 299 249 590 362 896 115-301 235-597 351-896h190L705 0c-65 164-130 320-275 396-67 36-177 35-262 18V279" id="aX"/><g id="q"><use transform="matrix(0.006618923611111111,0,0,0.006618923611111111,0,0)" xlink:href="#aQ"/><use transform="matrix(0.006618923611111111,0,0,0.006618923611111111,8.134657118055555,0)" xlink:href="#aW"/><use transform="matrix(0.006618923611111111,0,0,0.006618923611111111,16.26931423611111,0)" xlink:href="#aQ"/><use transform="matrix(0.006618923611111111,0,0,0.006618923611111111,24.403971354166664,0)" xlink:href="#aM"/><use transform="matrix(0.006618923611111111,0,0,0.006618923611111111,32.53862847222222,0)" xlink:href="#aX"/></g><path fill="#3a414a" d="M148-1120c216-7 379-89 463-229h166v1204h353V0H157v-145h439v-1021c-79 124-254 184-448 194v-148" id="aY"/><path fill="#3a414a" d="M1065-1013c47 164 49 500-1 665C999-130 875 20 611 20c-377 0-484-300-487-695-2-245 41-425 141-551 77-98 191-144 352-144 261 0 386 140 448 357zM741-155c199-92 203-504 159-785-26-168-96-284-283-284-281 0-308 256-311 549-2 181 18 324 80 428 46 77 115 118 227 120 47 0 90-10 128-28" id="aZ"/><g id="r"><use transform="matrix(0.006618923611111111,0,0,0.006618923611111111,0,0)" xlink:href="#aY"/><use transform="matrix(0.006618923611111111,0,0,0.006618923611111111,8.134657118055555,0)" xlink:href="#aZ"/></g><path fill="#3a414a" d="M904-1102c199 0 220 177 220 381V0H956v-686c-3-114 0-215-60-264-70-33-125-4-158 71-26 56-39 140-39 252V0H531v-686c-3-114-1-215-61-264-78-41-136 24-157 84-24 69-39 159-39 259V0H105c-3-360 6-732-6-1082h149c6 50 3 123 8 175 36-100 83-195 216-195 135 0 166 79 196 196 42-105 93-196 236-196" id="ba"/><path fill="#3a414a" d="M873-819c-18-114-119-146-250-146-163 0-245 50-245 151 0 151 170 148 294 185 182 54 388 94 388 320 0 240-189 325-439 329-245 4-410-69-454-268l159-31c24 133 136 168 295 165 144-2 270-31 270-171 0-164-195-160-331-202-167-52-350-87-350-299 0-218 173-315 413-313 220 2 373 77 412 260" id="bb"/><g id="s"><use transform="matrix(0.006618923611111111,0,0,0.006618923611111111,0,0)" xlink:href="#ba"/><use transform="matrix(0.006618923611111111,0,0,0.006618923611111111,8.134657118055555,0)" xlink:href="#aT"/><use transform="matrix(0.006618923611111111,0,0,0.006618923611111111,16.26931423611111,0)" xlink:href="#aO"/><use transform="matrix(0.006618923611111111,0,0,0.006618923611111111,24.403971354166664,0)" xlink:href="#bb"/></g><path fill="#3a414a" d="M709-1193V0H519v-1193H76v-156h1076v156H709" id="bc"/><path fill="#3a414a" d="M237 0v-1349h191v1193h672V0H237" id="bd"/><g id="t"><use transform="matrix(0.006618923611111111,0,0,0.006618923611111111,0,0)" xlink:href="#bc"/><use transform="matrix(0.006618923611111111,0,0,0.006618923611111111,8.134657118055555,0)" xlink:href="#bc"/><use transform="matrix(0.006618923611111111,0,0,0.006618923611111111,16.26931423611111,0)" xlink:href="#bd"/><path fill="#3a414a" d="M-.68 2.88h25.76v.56H-.68z"/></g><use transform="matrix(0.006618923611111111,0,0,0.006618923611111111,0,0)" xlink:href="#aH" id="u"/><path fill="#3a414a" d="M1060-1016c0 191-128 285-295 323v4c154 18 262 91 313 209 14 35 21 72 21 110 0 277-194 390-478 390-292 0-457-129-493-382l186-17c24 161 121 250 307 250 172 1 298-80 291-247-8-208-220-239-446-233v-156c217 9 409-34 409-232 0-152-102-225-264-225-159 0-264 88-278 233l-181-14c33-239 196-367 461-367 264 0 447 102 447 354" id="be"/><use transform="matrix(0.006618923611111111,0,0,0.006618923611111111,0,0)" xlink:href="#be" id="v"/><path fill="#3a414a" d="M648-963c-190 6-283 138-283 336V0H185v-1484h181c-2 197 6 404-9 587h3c62-120 159-205 339-205 242 0 351 135 350 381V0H868v-695c1-168-57-273-220-268" id="bf"/><path fill="#3a414a" d="M528 20c-247 0-343-132-343-381v-721h180v686c-4 177 45 284 224 277 194-8 279-136 279-336v-627h181c3 360-6 732 6 1082H885c-4-54-7-126-8-185h-3C809-64 714 20 528 20" id="bg"/><g id="w"><use transform="matrix(0.006618923611111111,0,0,0.006618923611111111,0,0)" xlink:href="#bf"/><use transform="matrix(0.006618923611111111,0,0,0.006618923611111111,8.134657118055555,0)" xlink:href="#aF"/><use transform="matrix(0.006618923611111111,0,0,0.006618923611111111,16.26931423611111,0)" xlink:href="#bg"/><use transform="matrix(0.006618923611111111,0,0,0.006618923611111111,24.403971354166664,0)" xlink:href="#aM"/><use transform="matrix(0.006618923611111111,0,0,0.006618923611111111,32.53862847222222,0)" xlink:href="#bb"/></g><path fill="#3a414a" d="M473-1349c438-1 655 221 652 661C1122-268 945-8 532 0H162v-1349h311zm42 1193c308-4 416-205 418-532 2-330-131-509-459-505H353v1037h162" id="bh"/><g id="x"><use transform="matrix(0.006618923611111111,0,0,0.006618923611111111,0,0)" xlink:href="#bh"/><use transform="matrix(0.006618923611111111,0,0,0.006618923611111111,8.134657118055555,0)" xlink:href="#aQ"/><use transform="matrix(0.006618923611111111,0,0,0.006618923611111111,16.26931423611111,0)" xlink:href="#aG"/><use transform="matrix(0.006618923611111111,0,0,0.006618923611111111,24.403971354166664,0)" xlink:href="#aT"/><use transform="matrix(0.006618923611111111,0,0,0.006618923611111111,32.53862847222222,0)" xlink:href="#aW"/><use transform="matrix(0.006618923611111111,0,0,0.006618923611111111,40.67328559027778,0)" xlink:href="#aQ"/><use transform="matrix(0.006618923611111111,0,0,0.006618923611111111,48.807942708333336,0)" xlink:href="#aM"/><use transform="matrix(0.006618923611111111,0,0,0.006618923611111111,56.942599826388886,0)" xlink:href="#aX"/><path fill="#3a414a" d="M-.68 2.88h66.43v.56H-.68z"/><use transform="matrix(0.006618923611111111,0,0,0.006618923611111111,65.07725694444444,0)" xlink:href="#aH"/></g><path fill="#3a414a" d="M496 0v-299h235V0H496" id="bi"/><path fill="#3a414a" d="M114 20l821-1504h178L296 20H114" id="bj"/><path fill="#3a414a" d="M365-904c58-129 161-200 334-200 130 0 228 46 293 138s98 233 98 420c0 189-34 331-102 425S824 20 698 20c-170 0-275-64-336-184 0 55-3 116-9 164H179c5-68 6-147 6-223v-1261h180c-2 193 4 394-4 580h4zm283 791c221 0 256-197 256-427 0-229-34-425-254-425-236 0-285 195-285 441 0 237 53 411 283 411" id="bk"/><path fill="#3a414a" d="M914 0L548-499l-132 98V0H236v-1484h180v927l475-525h211L663-617 1125 0H914" id="bl"/><g id="y"><use transform="matrix(0.006618923611111111,0,0,0.006618923611111111,0,0)" xlink:href="#aX"/><use transform="matrix(0.006618923611111111,0,0,0.006618923611111111,8.134657118055555,0)" xlink:href="#aF"/><use transform="matrix(0.006618923611111111,0,0,0.006618923611111111,16.26931423611111,0)" xlink:href="#bg"/><use transform="matrix(0.006618923611111111,0,0,0.006618923611111111,24.403971354166664,0)" xlink:href="#bi"/><use transform="matrix(0.006618923611111111,0,0,0.006618923611111111,32.53862847222222,0)" xlink:href="#aR"/><use transform="matrix(0.006618923611111111,0,0,0.006618923611111111,40.67328559027778,0)" xlink:href="#aF"/><use transform="matrix(0.006618923611111111,0,0,0.006618923611111111,48.807942708333336,0)" xlink:href="#ba"/><use transform="matrix(0.006618923611111111,0,0,0.006618923611111111,56.942599826388886,0)" xlink:href="#bj"/><use transform="matrix(0.006618923611111111,0,0,0.006618923611111111,65.07725694444444,0)" xlink:href="#aR"/><use transform="matrix(0.006618923611111111,0,0,0.006618923611111111,73.2119140625,0)" xlink:href="#aN"/><use transform="matrix(0.006618923611111111,0,0,0.006618923611111111,81.34657118055556,0)" xlink:href="#aG"/><use transform="matrix(0.006618923611111111,0,0,0.006618923611111111,89.48122829861111,0)" xlink:href="#aG"/><use transform="matrix(0.006618923611111111,0,0,0.006618923611111111,97.61588541666667,0)" xlink:href="#bk"/><use transform="matrix(0.006618923611111111,0,0,0.006618923611111111,105.75054253472223,0)" xlink:href="#aN"/><use transform="matrix(0.006618923611111111,0,0,0.006618923611111111,113.88519965277777,0)" xlink:href="#aR"/><use transform="matrix(0.006618923611111111,0,0,0.006618923611111111,122.01985677083333,0)" xlink:href="#bl"/></g><path fill="#333" d="M137 0h-34L2-248h35l83 218 83-218h36" id="bm"/><path fill="#333" d="M106-169C34-169 62-67 57 0H25v-261h32l-1 103c12-21 28-36 61-36 89 0 53 116 60 194h-32v-121c2-32-8-49-39-48" id="bn"/><g id="z"><use transform="matrix(0.04938271604938272,0,0,0.04938271604938272,0,0)" xlink:href="#bm"/><use transform="matrix(0.04938271604938272,0,0,0.04938271604938272,10.864197530864198,0)" xlink:href="#al"/><use transform="matrix(0.04938271604938272,0,0,0.04938271604938272,20.74074074074074,0)" xlink:href="#bn"/><use transform="matrix(0.04938271604938272,0,0,0.04938271604938272,30.617283950617285,0)" xlink:href="#as"/><use transform="matrix(0.04938271604938272,0,0,0.04938271604938272,34.51851851851852,0)" xlink:href="#aj"/><use transform="matrix(0.04938271604938272,0,0,0.04938271604938272,43.407407407407405,0)" xlink:href="#ap"/><use transform="matrix(0.04938271604938272,0,0,0.04938271604938272,47.30864197530864,0)" xlink:href="#al"/><path fill="#333" d="M-.9 1.23h58.97v1.3H-.9z"/></g><path fill="#3a414a" d="M143 4C61 4 22-44 18-125c-5-107 100-154 193-111 17 8 29 25 37 43l-32 9c-13-25-37-40-76-40-61 0-88 39-88 99 0 61 29 100 91 101 35 0 62-11 79-27v-45h-74v-28h105v86C228-13 192 4 143 4" id="bo"/><path fill="#3a414a" d="M30 0v-248h187v28H63v79h144v27H63v87h162V0H30" id="bp"/><g id="A"><use transform="matrix(0.05,0,0,0.05,0,0)" xlink:href="#bo"/><use transform="matrix(0.05,0,0,0.05,14,0)" xlink:href="#bp"/><use transform="matrix(0.05,0,0,0.05,26,0)" xlink:href="#ax"/></g><path fill="#3a414a" d="M212-179c-10-28-35-45-73-45-59 0-87 40-87 99 0 60 29 101 89 101 43 0 62-24 78-52l27 14C228-24 195 4 139 4 59 4 22-46 18-125c-6-104 99-153 187-111 19 9 31 26 39 46" id="bq"/><path fill="#3a414a" d="M68-38c1 34 0 65-14 84H32c9-13 17-26 17-46H33v-38h35" id="br"/><g id="B"><use transform="matrix(0.05,0,0,0.05,0,0)" xlink:href="#aw"/><use transform="matrix(0.05,0,0,0.05,12,0)" xlink:href="#av"/><use transform="matrix(0.05,0,0,0.05,26,0)" xlink:href="#bq"/><use transform="matrix(0.05,0,0,0.05,38.95,0)" xlink:href="#br"/></g><path fill="#3a414a" d="M141-36C126-15 110 5 73 4 37 3 15-17 15-53c-1-64 63-63 125-63 3-35-9-54-41-54-24 1-41 7-42 31l-33-3c5-37 33-52 76-52 45 0 72 20 72 64v82c-1 20 7 32 28 27v20c-31 9-61-2-59-35zM48-53c0 20 12 33 32 33 41-3 63-29 60-74-43 2-92-5-92 41" id="bs"/><path fill="#3a414a" d="M117-194c89-4 53 116 60 194h-32v-121c0-31-8-49-39-48C34-167 62-67 57 0H25l-1-190h30c1 10-1 24 2 32 11-22 29-35 61-36" id="bt"/><path fill="#3a414a" d="M177-190C167-65 218 103 67 71c-23-6-38-20-44-43l32-5c15 47 100 32 89-28v-30C133-14 115 1 83 1 29 1 15-40 15-95c0-56 16-97 71-98 29-1 48 16 59 35 1-10 0-23 2-32h30zM94-22c36 0 50-32 50-73 0-42-14-75-50-75-39 0-46 34-46 75s6 73 46 73" id="bu"/><g id="C"><use transform="matrix(0.05,0,0,0.05,0,0)" xlink:href="#aD"/><use transform="matrix(0.05,0,0,0.05,5.95,0)" xlink:href="#bs"/><use transform="matrix(0.05,0,0,0.05,15.949999999999998,0)" xlink:href="#bt"/><use transform="matrix(0.05,0,0,0.05,25.950000000000003,0)" xlink:href="#bu"/><use transform="matrix(0.05,0,0,0.05,35.95,0)" xlink:href="#aC"/><use transform="matrix(0.05,0,0,0.05,45.95,0)" xlink:href="#br"/></g><path fill="#3a414a" d="M96-169c-40 0-48 33-48 73s9 75 48 75c24 0 41-14 43-38l32 2c-6 37-31 61-74 61-59 0-76-41-82-99-10-93 101-131 147-64 4 7 5 14 7 22l-32 3c-4-21-16-35-41-35" id="bv"/><path fill="#3a414a" d="M59-47c-2 24 18 29 38 22v24C64 9 27 4 27-40v-127H5v-23h24l9-43h21v43h35v23H59v120" id="bw"/><path fill="#3a414a" d="M24-231v-30h32v30H24zM24 0v-190h32V0H24" id="bx"/><g id="D"><use transform="matrix(0.05,0,0,0.05,0,0)" xlink:href="#aB"/><use transform="matrix(0.05,0,0,0.05,3.95,0)" xlink:href="#aA"/><use transform="matrix(0.05,0,0,0.05,13.949999999999998,0)" xlink:href="#bv"/><use transform="matrix(0.05,0,0,0.05,22.95,0)" xlink:href="#bs"/><use transform="matrix(0.05,0,0,0.05,32.95,0)" xlink:href="#bw"/><use transform="matrix(0.05,0,0,0.05,37.95,0)" xlink:href="#bx"/><use transform="matrix(0.05,0,0,0.05,41.900000000000006,0)" xlink:href="#aA"/><use transform="matrix(0.05,0,0,0.05,51.900000000000006,0)" xlink:href="#bt"/></g><path fill="#3a414a" d="M108 0H70L1-190h34L89-25l56-165h34" id="by"/><g id="E"><use transform="matrix(0.05,0,0,0.05,0,0)" xlink:href="#aB"/><use transform="matrix(0.05,0,0,0.05,3.95,0)" xlink:href="#bx"/><use transform="matrix(0.05,0,0,0.05,7.9,0)" xlink:href="#by"/><use transform="matrix(0.05,0,0,0.05,16.9,0)" xlink:href="#aC"/></g><path fill="#3a414a" d="M106-169C34-169 62-67 57 0H25v-261h32l-1 103c12-21 28-36 61-36 89 0 53 116 60 194h-32v-121c2-32-8-49-39-48" id="bz"/><g id="F"><use transform="matrix(0.05,0,0,0.05,0,0)" xlink:href="#by"/><use transform="matrix(0.05,0,0,0.05,9,0)" xlink:href="#aC"/><use transform="matrix(0.05,0,0,0.05,19,0)" xlink:href="#bz"/><use transform="matrix(0.05,0,0,0.05,29,0)" xlink:href="#bx"/><use transform="matrix(0.05,0,0,0.05,32.95,0)" xlink:href="#bv"/><use transform="matrix(0.05,0,0,0.05,41.95,0)" xlink:href="#aB"/><use transform="matrix(0.05,0,0,0.05,45.900000000000006,0)" xlink:href="#aC"/></g><path fill="#3a414a" d="M85-194c31 0 48 13 60 33l-1-100h32l1 261h-30c-2-10 0-23-3-31C134-8 116 4 85 4 32 4 16-35 15-94c0-66 23-100 70-100zm9 24c-40 0-46 34-46 75 0 40 6 74 45 74 42 0 51-32 51-76 0-42-9-74-50-73" id="bA"/><g id="G"><use transform="matrix(0.05,0,0,0.05,0,0)" xlink:href="#bA"/><use transform="matrix(0.05,0,0,0.05,10,0)" xlink:href="#bs"/><use transform="matrix(0.05,0,0,0.05,20,0)" xlink:href="#bw"/><use transform="matrix(0.05,0,0,0.05,25,0)" xlink:href="#bs"/></g><path fill="#3a414a" d="M179-190L93 31C79 59 56 82 12 73V49c39 6 53-20 64-50L1-190h34L92-34l54-156h33" id="bB"/><path fill="#3a414a" d="M84 4C-5 8 30-112 23-190h32v120c0 31 7 50 39 49 72-2 45-101 50-169h31l1 190h-30c-1-10 1-25-2-33-11 22-28 36-60 37" id="bC"/><path fill="#3a414a" d="M33 0v-38h34V0H33" id="bD"/><path fill="#3a414a" d="M210-169c-67 3-38 105-44 169h-31v-121c0-29-5-50-35-48C34-165 62-65 56 0H25l-1-190h30c1 10-1 24 2 32 10-44 99-50 107 0 11-21 27-35 58-36 85-2 47 119 55 194h-31v-121c0-29-5-49-35-48" id="bE"/><path fill="#3a414a" d="M115-194c53 0 69 39 70 98 0 66-23 100-70 100C84 3 66-7 56-30L54 0H23l1-261h32v101c10-23 28-34 59-34zm-8 174c40 0 45-34 45-75 0-40-5-75-45-74-42 0-51 32-51 76 0 43 10 73 51 73" id="bF"/><path fill="#3a414a" d="M143 0L79-87 56-68V0H24v-261h32v163l83-92h37l-77 82L181 0h-38" id="bG"/><g id="H"><use transform="matrix(0.05,0,0,0.05,0,0)" xlink:href="#bB"/><use transform="matrix(0.05,0,0,0.05,9,0)" xlink:href="#aA"/><use transform="matrix(0.05,0,0,0.05,19,0)" xlink:href="#bC"/><use transform="matrix(0.05,0,0,0.05,29,0)" xlink:href="#bD"/><use transform="matrix(0.05,0,0,0.05,34,0)" xlink:href="#bv"/><use transform="matrix(0.05,0,0,0.05,43,0)" xlink:href="#aA"/><use transform="matrix(0.05,0,0,0.05,53,0)" xlink:href="#bE"/><use transform="matrix(0.05,0,0,0.05,67.95,0)" xlink:href="#ay"/><use transform="matrix(0.05,0,0,0.05,72.95,0)" xlink:href="#bv"/><use transform="matrix(0.05,0,0,0.05,81.95,0)" xlink:href="#bs"/><use transform="matrix(0.05,0,0,0.05,91.95,0)" xlink:href="#aB"/><use transform="matrix(0.05,0,0,0.05,95.9,0)" xlink:href="#aB"/><use transform="matrix(0.05,0,0,0.05,99.85000000000001,0)" xlink:href="#bF"/><use transform="matrix(0.05,0,0,0.05,109.85000000000001,0)" xlink:href="#bs"/><use transform="matrix(0.05,0,0,0.05,119.85000000000001,0)" xlink:href="#bv"/><use transform="matrix(0.05,0,0,0.05,128.85000000000002,0)" xlink:href="#bG"/></g><g id="I"><use transform="matrix(0.05,0,0,0.05,0,0)" xlink:href="#aB"/><use transform="matrix(0.05,0,0,0.05,3.95,0)" xlink:href="#bx"/><use transform="matrix(0.05,0,0,0.05,7.9,0)" xlink:href="#by"/><use transform="matrix(0.05,0,0,0.05,16.9,0)" xlink:href="#aC"/></g><path fill="#3a414a" d="M101-251c82-7 93 87 43 132L82-64C71-53 59-42 53-27h129V0H18c2-99 128-94 128-182 0-28-16-43-45-43s-46 15-49 41l-32-3c6-41 34-60 81-64" id="bH"/><path fill="#3a414a" d="M101-251c68 0 85 55 85 127S166 4 100 4C33 4 14-52 14-124c0-73 17-127 87-127zm-1 229c47 0 54-49 54-102s-4-102-53-102c-51 0-55 48-55 102 0 53 5 102 54 102" id="bI"/><path fill="#3a414a" d="M27 0v-27h64v-190l-56 39v-29l58-41h29v221h61V0H27" id="bJ"/><g id="J"><use transform="matrix(0.05,0,0,0.05,0,0)" xlink:href="#bH"/><use transform="matrix(0.05,0,0,0.05,10,0)" xlink:href="#bI"/><use transform="matrix(0.05,0,0,0.05,20,0)" xlink:href="#bJ"/></g><g id="K"><use transform="matrix(0.05,0,0,0.05,0,0)" xlink:href="#bq"/><use transform="matrix(0.05,0,0,0.05,12.950000000000001,0)" xlink:href="#aD"/><use transform="matrix(0.05,0,0,0.05,18.900000000000002,0)" xlink:href="#aC"/><use transform="matrix(0.05,0,0,0.05,28.900000000000002,0)" xlink:href="#bs"/><use transform="matrix(0.05,0,0,0.05,38.900000000000006,0)" xlink:href="#bw"/><use transform="matrix(0.05,0,0,0.05,43.900000000000006,0)" xlink:href="#aC"/><use transform="matrix(0.05,0,0,0.05,53.900000000000006,0)" xlink:href="#bA"/></g></defs></g></svg>