<svg xmlns="http://www.w3.org/2000/svg" xmlns:xlink="http://www.w3.org/1999/xlink" xmlns:lucid="lucid" width="1080" height="666"><g transform="translate(-440 -140)" lucid:page-tab-id="0_0"><path d="M0 0h1760v1360H0z" fill="#e0f5eb"/><path d="M460 585.67a8 8 0 0 1 8-8h199a8 8 0 0 1 8 8v4.92a17.07 17.07 0 0 1-5 12.07 17.07 17.07 0 0 1-12.07 5H468a8 8 0 0 1-8-8z" fill="#fff"/><path d="M675 577.67v20l-10 10H460" stroke="#333" fill="none"/><path d="M460 585.67a8 8 0 0 1 8-8h1024a8 8 0 0 1 8 8V752a8 8 0 0 1-8 8H468a8 8 0 0 1-8-8z" stroke="#333" fill="none"/><use xlink:href="#a" transform="matrix(1,0,0,1,468,577.6655519423589) translate(2.8209876543209873 18.555555555555557)"/><use xlink:href="#b" transform="matrix(1,0,0,1,468,577.6655519423589) translate(53.14197530864198 18.555555555555557)"/><use xlink:href="#c" transform="matrix(1,0,0,1,468,577.6655519423589) translate(128.15432098765433 18.555555555555557)"/><use xlink:href="#d" transform="matrix(1,0,0,1,468,577.6655519423589) translate(151.1172839506173 18.555555555555557)"/><path d="M698.7 282.45v10.14m0 10.13V323m0 10.14v20.28m0 10.14v20.27m0 10.14v20.28m0 10.14v20.26m0 10.14v20.28m0 10.14v20.27m0 10.13v20.28m0 10.14v20.28m0 10.14v20.28m0 10.13v20.28m0 10.14v20.26m0 10.14v20.28m0 10.14v20.27m0 10.13v20.28m0 10.15v20.27m0 10.14v10.14" stroke="#333" fill="none"/><path d="M699.2 282.46h-1v-.5h1z" stroke="#333" stroke-width=".05" fill="#333"/><path d="M698.7 799.5v.5" stroke="#333" fill="none"/><path d="M679.76 357.73a8 8 0 0 1 8-8h24a8 8 0 0 1 8 8V532a8 8 0 0 1-8 8h-24a8 8 0 0 1-8-8z" stroke="#f2f2f2" fill="#979ea8"/><path d="M1055.04 282.45v10.14m0 10.13V323m0 10.14v20.28m0 10.14v20.27m0 10.14v20.28m0 10.14v20.26m0 10.14v20.28m0 10.14v20.27m0 10.13v20.28m0 10.14v20.28m0 10.14v20.28m0 10.13v20.28m0 10.14v20.26m0 10.14v20.28m0 10.14v20.27m0 10.13v20.28m0 10.15v20.27m0 10.14v10.14" stroke="#333" fill="none"/><path d="M1055.54 282.46h-1v-.5h1z" stroke="#333" stroke-width=".05" fill="#333"/><path d="M1055.04 799.5v.5" stroke="#333" fill="none"/><path d="M603.65 168a8 8 0 0 1 8-8h174.07a8 8 0 0 1 8 8v106a8 8 0 0 1-8 8H611.65a8 8 0 0 1-8-8z" stroke="#000" stroke-opacity="0" fill="#54c45e"/><use xlink:href="#e" transform="matrix(1,0,0,1,611.6496896262572,168) translate(33.52469135802468 56.55555555555555)"/><use xlink:href="#f" transform="matrix(1,0,0,1,611.6496896262572,168) translate(74.31481481481481 56.55555555555555)"/><path d="M960 168a8 8 0 0 1 8-8h174.08a8 8 0 0 1 8 8v106a8 8 0 0 1-8 8H968a8 8 0 0 1-8-8z" stroke="#000" stroke-opacity="0" fill="#ffe342"/><use xlink:href="#g" transform="matrix(1,0,0,1,967.9999999999999,168) translate(45.129629629629626 45.888888888888886)"/><use xlink:href="#h" transform="matrix(1,0,0,1,967.9999999999999,168) translate(46.04320987654321 67.22222222222223)"/><path d="M720.66 360.4H876.8a.02.02 0 0 0 .02-.02.02.02 0 0 1 .02-.02h140.25" stroke="#3a414a" fill="none"/><path d="M720.68 360.9h-.52v-1h.52z" stroke="#3a414a" stroke-width=".05" fill="#3a414a"/><path d="M1031.86 360.36L1017.6 365v-9.27z" stroke="#3a414a" fill="#3a414a"/><use xlink:href="#i" transform="matrix(1,0,0,1,807.0454877464146,334.7622290741354) translate(0.0049999999999954525 14.4)"/><use xlink:href="#j" transform="matrix(1,0,0,1,807.0454877464146,334.7622290741354) translate(53.605 14.4)"/><path d="M780 364.7a8 8 0 0 1 8-8h224a8 8 0 0 1 8 8v137.7a8 8 0 0 1-8 8H788a8 8 0 0 1-8-8z" stroke="#000" stroke-opacity="0" fill="#fff" fill-opacity="0"/><use xlink:href="#k" transform="matrix(1,0,0,1,785,361.70877265477617) translate(0 15.341796875)"/><use xlink:href="#l" transform="matrix(1,0,0,1,785,361.70877265477617) translate(0 30.25290798611111)"/><use xlink:href="#m" transform="matrix(1,0,0,1,785,361.70877265477617) translate(81.34657118055556 30.25290798611111)"/><use xlink:href="#n" transform="matrix(1,0,0,1,785,361.70877265477617) translate(0 45.16401909722222)"/><use xlink:href="#o" transform="matrix(1,0,0,1,785,361.70877265477617) translate(40.67328559027778 45.16401909722222)"/><use xlink:href="#p" transform="matrix(1,0,0,1,785,361.70877265477617) translate(0 60.075130208333334)"/><use xlink:href="#q" transform="matrix(1,0,0,1,785,361.70877265477617) translate(0 74.98624131944445)"/><use xlink:href="#r" transform="matrix(1,0,0,1,785,361.70877265477617) translate(0 89.89735243055556)"/><use xlink:href="#s" transform="matrix(1,0,0,1,785,361.70877265477617) translate(0 104.80846354166667)"/><use xlink:href="#t" transform="matrix(1,0,0,1,785,361.70877265477617) translate(0 119.71957465277778)"/><use xlink:href="#u" transform="matrix(1,0,0,1,785,361.70877265477617) translate(0 134.6306857638889)"/><use xlink:href="#v" transform="matrix(1,0,0,1,785,361.70877265477617) translate(48.807942708333336 134.6306857638889)"/><use xlink:href="#w" transform="matrix(1,0,0,1,785,361.70877265477617) translate(113.88519965277777 134.6306857638889)"/><use xlink:href="#x" transform="matrix(1,0,0,1,785,361.70877265477617) translate(138.28917100694443 134.6306857638889)"/><path d="M1033.96 328a8 8 0 0 1 8-8h24a8 8 0 0 1 8 8v224a8 8 0 0 1-8 8h-24a8 8 0 0 1-8-8z" stroke="#f2f2f2" fill="#979ea8"/><path d="M1375.04 282.45v10.14m0 10.13V323m0 10.14v20.28m0 10.14v20.27m0 10.14v20.28m0 10.14v20.26m0 10.14v20.28m0 10.14v20.27m0 10.13v20.28m0 10.14v20.28m0 10.14v20.28m0 10.13v20.28m0 10.14v20.26m0 10.14v20.28m0 10.14v20.27m0 10.13v20.28m0 10.15v20.27m0 10.14v10.14" stroke="#333" fill="none"/><path d="M1375.54 282.46h-1v-.5h1z" stroke="#333" stroke-width=".05" fill="#333"/><path d="M1375.04 799.5v.5" stroke="#333" fill="none"/><path d="M1280 168a8 8 0 0 1 8-8h174.08a8 8 0 0 1 8 8v106a8 8 0 0 1-8 8H1288a8 8 0 0 1-8-8z" stroke="#000" stroke-opacity="0" fill="#9391ff"/><g><use xlink:href="#y" transform="matrix(1,0,0,1,1288.0000000000002,168) translate(58.907407407407405 56.55555555555555)"/></g><path d="M1353.96 618a8 8 0 0 1 8-8h24a8 8 0 0 1 8 8v124a8 8 0 0 1-8 8h-24a8 8 0 0 1-8-8z" stroke="#f2f2f2" fill="#979ea8"/><path d="M1113 663.7h224.12" stroke="#3a414a" fill="none"/><path d="M1113 664.2h-.56l.05-.5-.06-.5h.56z" stroke="#3a414a" stroke-width=".05" fill="#3a414a"/><path d="M1351.88 663.7l-14.26 4.64v-9.28z" stroke="#3a414a" fill="#3a414a"/><g><use xlink:href="#i" transform="matrix(1,0,0,1,1148.7930639924011,638.1000000000001) translate(0.0049999999999954525 14.4)"/><use xlink:href="#z" transform="matrix(1,0,0,1,1148.7930639924011,638.1000000000001) translate(53.605 14.4)"/></g><path d="M1033.04 510.67h-296.4" stroke="#3a414a" fill="none"/><path d="M1033.54 511.17h-.5v-1h.5z" stroke="#3a414a" stroke-width=".05" fill="#3a414a"/><path d="M721.87 510.67l14.26-4.64v9.27z" stroke="#3a414a" fill="#3a414a"/><g><use xlink:href="#A" transform="matrix(1,0,0,1,827.446443727752,514.6662827042406) translate(0.005000000000002558 14.4)"/><use xlink:href="#B" transform="matrix(1,0,0,1,827.446443727752,514.6662827042406) translate(35.005 14.4)"/></g><path d="M1049.58 623.78a10.74 10.74 0 0 1 12.84 0l47.16 35.14a5.96 5.96 0 0 1 0 9.56l-47.16 35.14a10.74 10.74 0 0 1-12.84 0l-47.16-35.14a5.96 5.96 0 0 1 0-9.56z" stroke="#3a414a" fill="#fff"/><g><use xlink:href="#C" transform="matrix(1,0,0,1,1001.0000000000001,624) translate(23.178765432098775 33.34444444444445)"/><use xlink:href="#D" transform="matrix(1,0,0,1,1001.0000000000001,624) translate(26.029999999999998 49.611111111111114)"/></g><path d="M900 626.3h105.45V700H900z" fill="#fff" fill-opacity="0"/><g><use xlink:href="#E" transform="matrix(1,0,0,1,905,631.3000000000001) translate(2.049999999999997 14.4)"/><use xlink:href="#F" transform="matrix(1,0,0,1,905,631.3000000000001) translate(36 36)"/><use xlink:href="#G" transform="matrix(1,0,0,1,905,631.3000000000001) translate(0.2749999999999986 57.6)"/><use xlink:href="#H" transform="matrix(1,0,0,1,905,631.3000000000001) translate(44.225 57.6)"/><use xlink:href="#I" transform="matrix(1,0,0,1,905,631.3000000000001) translate(59.725 57.6)"/></g><defs><path fill="#333" d="M11 0l48-248h184l-5 28H87l-15 79h140l-5 27H67L50-27h158l-5 27H11" id="J"/><path fill="#333" d="M89 0H52L20-190h33L74-25l89-165h34" id="K"/><path fill="#333" d="M111-194c62-3 86 47 72 106H45c-7 38 6 69 45 68 27-1 43-14 53-32l24 11C152-15 129 4 87 4 38 3 12-23 12-71c0-70 32-119 99-123zm44 81c14-66-71-72-95-28-4 8-8 17-11 28h106" id="L"/><path fill="#333" d="M66-151c12-25 30-51 66-40l-6 26C45-176 58-65 38 0H6l36-190h30" id="M"/><path fill="#333" d="M198-190L69 30C53 58 25 83-20 72c4-11-1-27 19-22 33-1 43-29 59-52L20-190h32L79-34l84-156h35" id="N"/><g id="a"><use transform="matrix(0.04938271604938272,0,0,0.04938271604938272,0,0)" xlink:href="#J"/><use transform="matrix(0.04938271604938272,0,0,0.04938271604938272,11.851851851851853,0)" xlink:href="#K"/><use transform="matrix(0.04938271604938272,0,0,0.04938271604938272,20.74074074074074,0)" xlink:href="#L"/><use transform="matrix(0.04938271604938272,0,0,0.04938271604938272,30.617283950617285,0)" xlink:href="#M"/><use transform="matrix(0.04938271604938272,0,0,0.04938271604938272,36.49382716049383,0)" xlink:href="#N"/></g><path fill="#333" d="M188 0h-37l-8-164L71 0H34L18-190h31l8 164 75-164h34l8 164 74-164h31" id="O"/><path fill="#333" d="M127 0L80-88 50-66 37 0H6l51-261h31L57-100l99-90h39l-93 82L161 0h-34" id="P"/><path fill="#333" d="M133-28C103 26-5 8 13-77c13-62 24-115 90-117 29-1 46 15 56 35l19-102h32L160 0h-30zM45-64c-2 27 10 43 35 43 54-1 69-50 69-103 0-29-15-46-42-46-53-1-58 58-62 106" id="Q"/><path fill="#333" d="M165-48c-4 18 1 34 23 27l-3 20c-29 8-62 0-52-35h-2C116-14 99 4 63 4 30 4 8-16 8-49c0-68 71-67 138-67 10-26 0-56-31-54-26 1-42 9-47 31l-32-5c8-67 160-71 144 15-5 28-9 54-15 81zM42-50c3 52 80 24 89-6 7-12 7-24 11-38-47 1-103-4-100 44" id="R"/><g id="b"><use transform="matrix(0.04938271604938272,0,0,0.04938271604938272,0,0)" xlink:href="#O"/><use transform="matrix(0.04938271604938272,0,0,0.04938271604938272,12.790123456790125,0)" xlink:href="#L"/><use transform="matrix(0.04938271604938272,0,0,0.04938271604938272,22.66666666666667,0)" xlink:href="#L"/><use transform="matrix(0.04938271604938272,0,0,0.04938271604938272,32.543209876543216,0)" xlink:href="#P"/><use transform="matrix(0.04938271604938272,0,0,0.04938271604938272,41.4320987654321,0)" xlink:href="#Q"/><use transform="matrix(0.04938271604938272,0,0,0.04938271604938272,51.308641975308646,0)" xlink:href="#R"/><use transform="matrix(0.04938271604938272,0,0,0.04938271604938272,61.18518518518519,0)" xlink:href="#N"/></g><path fill="#333" d="M204-261c85 0 136 45 136 128 0 61-22 110-78 115-28 2-39-18-37-44-13 22-31 44-66 44-40 0-58-27-58-68 0-60 30-105 88-108 29-1 43 15 54 32l7-28h27L250-56c-1 11 6 16 15 16 39 0 51-48 51-92 0-69-42-107-112-107-94 0-145 59-145 153 0 72 41 113 114 113 43 0 78-13 106-28l10 19c-30 18-68 32-116 32C85 50 34 0 34-86c0-107 62-175 170-175zM164-41c46 0 70-44 70-90 0-26-17-40-43-40-44 0-59 41-61 85-1 26 9 45 34 45" id="S"/><use transform="matrix(0.04938271604938272,0,0,0.04938271604938272,0,0)" xlink:href="#S" id="c"/><path fill="#333" d="M9 0l6-27h63l36-188-63 39 6-31 66-41h29L110-27h60l-5 27H9" id="T"/><path fill="#333" d="M67-162c32-53 139-36 121 50C175-51 163 2 97 4 68 4 52-11 42-31 38 6 28 39 22 75H-9l50-265h29c-1 10 0 20-3 28zm89 36c0-26-10-43-35-43-54 0-67 50-69 103-1 29 14 45 42 46 53 0 62-58 62-106" id="U"/><path fill="#333" d="M248-111c6-24 9-61-24-58-72 9-57 108-77 169h-31l26-142c3-37-50-30-64-10C52-115 50-51 37 0H6l36-190h30c-1 10-6 24-4 32 13-43 101-52 105 5 13-22 29-41 61-41 90 0 28 129 23 194h-31" id="V"/><g id="d"><use transform="matrix(0.04938271604938272,0,0,0.04938271604938272,0,0)" xlink:href="#T"/><use transform="matrix(0.04938271604938272,0,0,0.04938271604938272,8.54320987654321,0)" xlink:href="#T"/><use transform="matrix(0.04938271604938272,0,0,0.04938271604938272,18.419753086419753,0)" xlink:href="#U"/><use transform="matrix(0.04938271604938272,0,0,0.04938271604938272,28.296296296296298,0)" xlink:href="#V"/></g><path fill="#333" d="M137-103V0h-34v-103L8-248h37l75 118 75-118h37" id="W"/><path fill="#333" d="M100-194c62-1 85 37 85 99 1 63-27 99-86 99S16-35 15-95c0-66 28-99 85-99zM99-20c44 1 53-31 53-75 0-43-8-75-51-75s-53 32-53 75 10 74 51 75" id="X"/><path fill="#333" d="M84 4C-5 8 30-112 23-190h32v120c0 31 7 50 39 49 72-2 45-101 50-169h31l1 190h-30c-1-10 1-25-2-33-11 22-28 36-60 37" id="Y"/><path fill="#333" d="M114-163C36-179 61-72 57 0H25l-1-190h30c1 12-1 29 2 39 6-27 23-49 58-41v29" id="Z"/><g id="e"><use transform="matrix(0.04938271604938272,0,0,0.04938271604938272,0,0)" xlink:href="#W"/><use transform="matrix(0.04938271604938272,0,0,0.04938271604938272,10.222222222222223,0)" xlink:href="#X"/><use transform="matrix(0.04938271604938272,0,0,0.04938271604938272,20.098765432098766,0)" xlink:href="#Y"/><use transform="matrix(0.04938271604938272,0,0,0.04938271604938272,29.97530864197531,0)" xlink:href="#Z"/></g><path fill="#333" d="M115-194c53 0 69 39 70 98 0 66-23 100-70 100C84 3 66-7 56-30L54 0H23l1-261h32v101c10-23 28-34 59-34zm-8 174c40 0 45-34 45-75 0-40-5-75-45-74-42 0-51 32-51 76 0 43 10 73 51 73" id="aa"/><path fill="#333" d="M141-36C126-15 110 5 73 4 37 3 15-17 15-53c-1-64 63-63 125-63 3-35-9-54-41-54-24 1-41 7-42 31l-33-3c5-37 33-52 76-52 45 0 72 20 72 64v82c-1 20 7 32 28 27v20c-31 9-61-2-59-35zM48-53c0 20 12 33 32 33 41-3 63-29 60-74-43 2-92-5-92 41" id="ab"/><path fill="#333" d="M96-169c-40 0-48 33-48 73s9 75 48 75c24 0 41-14 43-38l32 2c-6 37-31 61-74 61-59 0-76-41-82-99-10-93 101-131 147-64 4 7 5 14 7 22l-32 3c-4-21-16-35-41-35" id="ac"/><path fill="#333" d="M143 0L79-87 56-68V0H24v-261h32v163l83-92h37l-77 82L181 0h-38" id="ad"/><path fill="#333" d="M100-194c63 0 86 42 84 106H49c0 40 14 67 53 68 26 1 43-12 49-29l28 8c-11 28-37 45-77 45C44 4 14-33 15-96c1-61 26-98 85-98zm52 81c6-60-76-77-97-28-3 7-6 17-6 28h103" id="ae"/><path fill="#333" d="M117-194c89-4 53 116 60 194h-32v-121c0-31-8-49-39-48C34-167 62-67 57 0H25l-1-190h30c1 10-1 24 2 32 11-22 29-35 61-36" id="af"/><path fill="#333" d="M85-194c31 0 48 13 60 33l-1-100h32l1 261h-30c-2-10 0-23-3-31C134-8 116 4 85 4 32 4 16-35 15-94c0-66 23-100 70-100zm9 24c-40 0-46 34-46 75 0 40 6 74 45 74 42 0 51-32 51-76 0-42-9-74-50-73" id="ag"/><g id="f"><use transform="matrix(0.04938271604938272,0,0,0.04938271604938272,0,0)" xlink:href="#aa"/><use transform="matrix(0.04938271604938272,0,0,0.04938271604938272,9.876543209876544,0)" xlink:href="#ab"/><use transform="matrix(0.04938271604938272,0,0,0.04938271604938272,19.75308641975309,0)" xlink:href="#ac"/><use transform="matrix(0.04938271604938272,0,0,0.04938271604938272,28.641975308641978,0)" xlink:href="#ad"/><use transform="matrix(0.04938271604938272,0,0,0.04938271604938272,37.53086419753087,0)" xlink:href="#ae"/><use transform="matrix(0.04938271604938272,0,0,0.04938271604938272,47.40740740740741,0)" xlink:href="#af"/><use transform="matrix(0.04938271604938272,0,0,0.04938271604938272,57.283950617283956,0)" xlink:href="#ag"/></g><path fill="#333" d="M127-220V0H93v-220H8v-28h204v28h-85" id="ah"/><path fill="#333" d="M24 0v-261h32V0H24" id="ai"/><path fill="#333" d="M210-169c-67 3-38 105-44 169h-31v-121c0-29-5-50-35-48C34-165 62-65 56 0H25l-1-190h30c1 10-1 24 2 32 10-44 99-50 107 0 11-21 27-35 58-36 85-2 47 119 55 194h-31v-121c0-29-5-49-35-48" id="aj"/><path fill="#333" d="M59-47c-2 24 18 29 38 22v24C64 9 27 4 27-40v-127H5v-23h24l9-43h21v43h35v23H59v120" id="ak"/><path fill="#333" d="M24-231v-30h32v30H24zM24 0v-190h32V0H24" id="al"/><g id="g"><use transform="matrix(0.04938271604938272,0,0,0.04938271604938272,0,0)" xlink:href="#ah"/><use transform="matrix(0.04938271604938272,0,0,0.04938271604938272,8.839506172839506,0)" xlink:href="#ae"/><use transform="matrix(0.04938271604938272,0,0,0.04938271604938272,18.71604938271605,0)" xlink:href="#ai"/><use transform="matrix(0.04938271604938272,0,0,0.04938271604938272,22.617283950617285,0)" xlink:href="#ae"/><use transform="matrix(0.04938271604938272,0,0,0.04938271604938272,32.49382716049383,0)" xlink:href="#aj"/><use transform="matrix(0.04938271604938272,0,0,0.04938271604938272,47.25925925925927,0)" xlink:href="#ab"/><use transform="matrix(0.04938271604938272,0,0,0.04938271604938272,57.135802469135804,0)" xlink:href="#ak"/><use transform="matrix(0.04938271604938272,0,0,0.04938271604938272,62.074074074074076,0)" xlink:href="#al"/><use transform="matrix(0.04938271604938272,0,0,0.04938271604938272,65.97530864197532,0)" xlink:href="#ac"/><use transform="matrix(0.04938271604938272,0,0,0.04938271604938272,74.8641975308642,0)" xlink:href="#ab"/></g><path fill="#333" d="M185-189c-5-48-123-54-124 2 14 75 158 14 163 119 3 78-121 87-175 55-17-10-28-26-33-46l33-7c5 56 141 63 141-1 0-78-155-14-162-118-5-82 145-84 179-34 5 7 8 16 11 25" id="am"/><path fill="#333" d="M106-169C34-169 62-67 57 0H25v-261h32l-1 103c12-21 28-36 61-36 89 0 53 116 60 194h-32v-121c2-32-8-49-39-48" id="an"/><path fill="#333" d="M135-143c-3-34-86-38-87 0 15 53 115 12 119 90S17 21 10-45l28-5c4 36 97 45 98 0-10-56-113-15-118-90-4-57 82-63 122-42 12 7 21 19 24 35" id="ao"/><g id="h"><use transform="matrix(0.04938271604938272,0,0,0.04938271604938272,0,0)" xlink:href="#am"/><use transform="matrix(0.04938271604938272,0,0,0.04938271604938272,11.851851851851853,0)" xlink:href="#ac"/><use transform="matrix(0.04938271604938272,0,0,0.04938271604938272,20.74074074074074,0)" xlink:href="#an"/><use transform="matrix(0.04938271604938272,0,0,0.04938271604938272,30.617283950617285,0)" xlink:href="#ae"/><use transform="matrix(0.04938271604938272,0,0,0.04938271604938272,40.49382716049383,0)" xlink:href="#ag"/><use transform="matrix(0.04938271604938272,0,0,0.04938271604938272,50.370370370370374,0)" xlink:href="#Y"/><use transform="matrix(0.04938271604938272,0,0,0.04938271604938272,60.24691358024692,0)" xlink:href="#ai"/><use transform="matrix(0.04938271604938272,0,0,0.04938271604938272,64.14814814814815,0)" xlink:href="#ae"/><use transform="matrix(0.04938271604938272,0,0,0.04938271604938272,74.0246913580247,0)" xlink:href="#ao"/></g><path fill="#3a414a" d="M30-248c87 1 191-15 191 75 0 78-77 80-158 76V0H30v-248zm33 125c57 0 124 11 124-50 0-59-68-47-124-48v98" id="ap"/><path fill="#3a414a" d="M140-251c81 0 123 46 123 126C263-46 219 4 140 4 59 4 17-45 17-125s42-126 123-126zm0 227c63 0 89-41 89-101s-29-99-89-99c-61 0-89 39-89 99S79-25 140-24" id="aq"/><path fill="#3a414a" d="M185-189c-5-48-123-54-124 2 14 75 158 14 163 119 3 78-121 87-175 55-17-10-28-26-33-46l33-7c5 56 141 63 141-1 0-78-155-14-162-118-5-82 145-84 179-34 5 7 8 16 11 25" id="ar"/><path fill="#3a414a" d="M127-220V0H93v-220H8v-28h204v28h-85" id="as"/><g id="i"><use transform="matrix(0.05,0,0,0.05,0,0)" xlink:href="#ap"/><use transform="matrix(0.05,0,0,0.05,12,0)" xlink:href="#aq"/><use transform="matrix(0.05,0,0,0.05,26,0)" xlink:href="#ar"/><use transform="matrix(0.05,0,0,0.05,38,0)" xlink:href="#as"/></g><path fill="#3a414a" d="M0 4l72-265h28L28 4H0" id="at"/><path fill="#3a414a" d="M135-143c-3-34-86-38-87 0 15 53 115 12 119 90S17 21 10-45l28-5c4 36 97 45 98 0-10-56-113-15-118-90-4-57 82-63 122-42 12 7 21 19 24 35" id="au"/><path fill="#3a414a" d="M96-169c-40 0-48 33-48 73s9 75 48 75c24 0 41-14 43-38l32 2c-6 37-31 61-74 61-59 0-76-41-82-99-10-93 101-131 147-64 4 7 5 14 7 22l-32 3c-4-21-16-35-41-35" id="av"/><path fill="#3a414a" d="M106-169C34-169 62-67 57 0H25v-261h32l-1 103c12-21 28-36 61-36 89 0 53 116 60 194h-32v-121c2-32-8-49-39-48" id="aw"/><path fill="#3a414a" d="M100-194c63 0 86 42 84 106H49c0 40 14 67 53 68 26 1 43-12 49-29l28 8c-11 28-37 45-77 45C44 4 14-33 15-96c1-61 26-98 85-98zm52 81c6-60-76-77-97-28-3 7-6 17-6 28h103" id="ax"/><path fill="#3a414a" d="M85-194c31 0 48 13 60 33l-1-100h32l1 261h-30c-2-10 0-23-3-31C134-8 116 4 85 4 32 4 16-35 15-94c0-66 23-100 70-100zm9 24c-40 0-46 34-46 75 0 40 6 74 45 74 42 0 51-32 51-76 0-42-9-74-50-73" id="ay"/><path fill="#3a414a" d="M84 4C-5 8 30-112 23-190h32v120c0 31 7 50 39 49 72-2 45-101 50-169h31l1 190h-30c-1-10 1-25-2-33-11 22-28 36-60 37" id="az"/><path fill="#3a414a" d="M24 0v-261h32V0H24" id="aA"/><g id="j"><use transform="matrix(0.05,0,0,0.05,0,0)" xlink:href="#at"/><use transform="matrix(0.05,0,0,0.05,5,0)" xlink:href="#au"/><use transform="matrix(0.05,0,0,0.05,14,0)" xlink:href="#av"/><use transform="matrix(0.05,0,0,0.05,23,0)" xlink:href="#aw"/><use transform="matrix(0.05,0,0,0.05,33,0)" xlink:href="#ax"/><use transform="matrix(0.05,0,0,0.05,43,0)" xlink:href="#ay"/><use transform="matrix(0.05,0,0,0.05,53,0)" xlink:href="#az"/><use transform="matrix(0.05,0,0,0.05,63,0)" xlink:href="#aA"/><use transform="matrix(0.05,0,0,0.05,66.95,0)" xlink:href="#ax"/><use transform="matrix(0.05,0,0,0.05,76.95,0)" xlink:href="#au"/></g><path fill="#3a414a" d="M650-1214c-281 0-336 244-336 533 0 295 60 546 347 546 188 0 263-142 322-282l159 65C1058-155 935 20 659 20c-401 0-546-295-546-701 0-407 135-689 536-689 264 0 391 146 466 335l-168 65c-47-129-127-244-297-244" id="aB"/><path fill="#3a414a" d="M615-1102c343 0 484 203 482 560-1 347-147 562-488 562-336 0-475-219-479-562-4-349 156-560 485-560zm-8 989c240 0 301-180 301-429 0-245-55-427-290-427-236 0-299 181-299 427 0 243 61 429 288 429" id="aC"/><path fill="#3a414a" d="M706-1102c241 0 344 136 343 381V0H868v-695c1-168-57-273-220-268-190 6-283 138-283 336V0H185c-3-360 6-732-6-1082h170c4 54 7 126 8 185h3c63-121 164-204 346-205" id="aD"/><path fill="#3a414a" d="M865-914c-3-187-2-380-2-570h180v1261c0 76 1 155 6 223H877c-8-49-9-116-10-174h-5C801-44 708 26 530 26c-135 0-234-46-297-139s-95-232-95-419c0-377 131-566 392-566 176 0 271 63 335 184zm-286-51c-222 0-255 197-255 427 0 229 31 425 253 425 237 0 286-195 286-441 0-238-52-411-284-411" id="aE"/><path fill="#3a414a" d="M745-142h380V0H143v-142h422v-798H246v-142h499v940zM545-1292v-192h200v192H545" id="aF"/><path fill="#3a414a" d="M682 16c-209 0-323-80-324-285v-671H190v-142h170l58-282h120v282h432v142H538v652c2 114 60 155 182 155 106 0 209-16 297-34v137C921-4 806 16 682 16" id="aG"/><path fill="#3a414a" d="M873-819c-18-114-119-146-250-146-163 0-245 50-245 151 0 151 170 148 294 185 182 54 388 94 388 320 0 240-189 325-439 329-245 4-410-69-454-268l159-31c24 133 136 168 295 165 144-2 270-31 270-171 0-164-195-160-331-202-167-52-350-87-350-299 0-218 173-315 413-313 220 2 373 77 412 260" id="aH"/><path fill="#3a414a" d="M496 0v-299h235V0H496zm0-783v-299h235v299H496" id="aI"/><g id="k"><use transform="matrix(0.006618923611111111,0,0,0.006618923611111111,0,0)" xlink:href="#aB"/><use transform="matrix(0.006618923611111111,0,0,0.006618923611111111,8.134657118055555,0)" xlink:href="#aC"/><use transform="matrix(0.006618923611111111,0,0,0.006618923611111111,16.26931423611111,0)" xlink:href="#aD"/><use transform="matrix(0.006618923611111111,0,0,0.006618923611111111,24.403971354166664,0)" xlink:href="#aE"/><use transform="matrix(0.006618923611111111,0,0,0.006618923611111111,32.53862847222222,0)" xlink:href="#aF"/><use transform="matrix(0.006618923611111111,0,0,0.006618923611111111,40.67328559027778,0)" xlink:href="#aG"/><use transform="matrix(0.006618923611111111,0,0,0.006618923611111111,48.807942708333336,0)" xlink:href="#aF"/><use transform="matrix(0.006618923611111111,0,0,0.006618923611111111,56.942599826388886,0)" xlink:href="#aC"/><use transform="matrix(0.006618923611111111,0,0,0.006618923611111111,65.07725694444444,0)" xlink:href="#aD"/><use transform="matrix(0.006618923611111111,0,0,0.006618923611111111,73.2119140625,0)" xlink:href="#aH"/><path fill="#3a414a" d="M-.68 2.88h82.7v.56H-.68z"/><use transform="matrix(0.006618923611111111,0,0,0.006618923611111111,81.34657118055556,0)" xlink:href="#aI"/></g><path fill="#3a414a" d="M736-142h380V0H134v-142h422v-1200H267v-142h469v1342" id="aJ"/><path fill="#3a414a" d="M631 20c-350 0-501-215-501-562 0-355 162-560 502-560 250 0 399 118 446 323l-192 14c-23-124-109-196-262-196-242 0-305 171-305 415 1 245 61 427 304 427 151 0 248-77 267-215l190 12C1039-107 883 20 631 20" id="aK"/><path fill="#3a414a" d="M1000-272c3 95 12 159 101 161 21 0 41-3 59-7V-6c-44 10-86 16-139 16-141 2-191-84-197-217h-6C748-76 648 20 446 20c-207 0-318-120-318-322 0-266 194-348 454-354l236-4c12-191-40-305-222-305-140 0-220 47-232 172l-188-17c33-204 181-292 423-292 255 0 401 118 401 364v466zm-683-27c0 109 63 184 175 182 166-3 259-96 306-217 24-65 20-120 20-200-232 7-501-28-501 235" id="aL"/><g id="l"><use transform="matrix(0.006618923611111111,0,0,0.006618923611111111,0,0)" xlink:href="#aJ"/><use transform="matrix(0.006618923611111111,0,0,0.006618923611111111,8.134657118055555,0)" xlink:href="#aC"/><use transform="matrix(0.006618923611111111,0,0,0.006618923611111111,16.26931423611111,0)" xlink:href="#aK"/><use transform="matrix(0.006618923611111111,0,0,0.006618923611111111,24.403971354166664,0)" xlink:href="#aL"/><use transform="matrix(0.006618923611111111,0,0,0.006618923611111111,32.53862847222222,0)" xlink:href="#aG"/><use transform="matrix(0.006618923611111111,0,0,0.006618923611111111,40.67328559027778,0)" xlink:href="#aF"/><use transform="matrix(0.006618923611111111,0,0,0.006618923611111111,48.807942708333336,0)" xlink:href="#aC"/><use transform="matrix(0.006618923611111111,0,0,0.006618923611111111,56.942599826388886,0)" xlink:href="#aD"/><use transform="matrix(0.006618923611111111,0,0,0.006618923611111111,65.07725694444444,0)" xlink:href="#aI"/></g><path fill="#3a414a" d="M932 0L611-444 288 0H94l415-556-397-526h199l300 421 298-421h201L713-558 1133 0H932" id="aM"/><use transform="matrix(0.006618923611111111,0,0,0.006618923611111111,0,0)" xlink:href="#aM" id="m"/><path fill="#3a414a" d="M614-1226c-167 1-283 53-283 213 0 183 186 193 334 234 230 63 463 120 463 409 0 286-219 387-518 390C309 23 131-98 79-338l185-37c34 165 149 248 351 246 184-2 324-58 324-238 0-203-207-221-372-266-210-57-422-111-422-377 0-267 201-356 470-360 279-5 430 101 480 324l-188 33c-28-141-121-215-293-213" id="aN"/><path fill="#3a414a" d="M102-681c0-398 126-689 513-689 165 0 291 58 379 174s132 287 132 515c-1 318-88 554-298 657-123 61-317 58-438-3-206-104-288-341-288-654zm749 406c94-160 97-656-5-807-57-85-130-132-231-132-104 0-178 47-234 132-101 153-99 655 1 809 57 89 130 138 232 138 109 0 184-49 237-140" id="aO"/><g id="n"><use transform="matrix(0.006618923611111111,0,0,0.006618923611111111,0,0)" xlink:href="#aN"/><use transform="matrix(0.006618923611111111,0,0,0.006618923611111111,8.134657118055555,0)" xlink:href="#aO"/><use transform="matrix(0.006618923611111111,0,0,0.006618923611111111,16.26931423611111,0)" xlink:href="#aB"/><use transform="matrix(0.006618923611111111,0,0,0.006618923611111111,24.403971354166664,0)" xlink:href="#aI"/></g><path fill="#3a414a" d="M116-571v-205l995-418v154L253-674l858 367v153" id="aP"/><path fill="#3a414a" d="M353-779c69-51 166-92 291-90 218 3 357 100 423 255 21 52 32 109 32 170 0 305-189 464-500 464-268 0-424-116-471-335l182-21c35 130 124 212 293 209 198-4 309-114 309-313 0-182-118-282-305-282-120 0-198 45-262 101H169l47-728h801v145H382" id="aQ"/><path fill="#3a414a" d="M1065-1013c47 164 49 500-1 665C999-130 875 20 611 20c-377 0-484-300-487-695-2-245 41-425 141-551 77-98 191-144 352-144 261 0 386 140 448 357zM741-155c199-92 203-504 159-785-26-168-96-284-283-284-281 0-308 256-311 549-2 181 18 324 80 428 46 77 115 118 227 120 47 0 90-10 128-28" id="aR"/><path fill="#3a414a" d="M221 0H76l932-1353h147zM0-1025c0-214 83-337 291-336 203 1 283 126 283 336-1 211-84 341-287 341C83-684 0-813 0-1025zm289 228c118 0 138-104 138-228s-16-228-137-228c-124 0-143 100-143 228 0 125 21 228 142 228zm367 468c0-214 83-337 291-336 203 1 283 126 283 336-1 211-84 341-287 341-204 0-287-129-287-341zm289 228c118 0 138-104 138-228s-16-228-137-228c-124 0-143 100-143 228 0 125 21 228 142 228" id="aS"/><g id="o"><use transform="matrix(0.006618923611111111,0,0,0.006618923611111111,0,0)" xlink:href="#aP"/><use transform="matrix(0.006618923611111111,0,0,0.006618923611111111,8.134657118055555,0)" xlink:href="#aQ"/><use transform="matrix(0.006618923611111111,0,0,0.006618923611111111,16.26931423611111,0)" xlink:href="#aR"/><use transform="matrix(0.006618923611111111,0,0,0.006618923611111111,24.403971354166664,0)" xlink:href="#aS"/></g><path fill="#3a414a" d="M1034 0L896-382H333L196 0H0l510-1349h217L1228 0h-194zM847-531c-77-225-157-447-231-674-69 231-154 451-232 674h463" id="aT"/><g id="q"><use transform="matrix(0.006618923611111111,0,0,0.006618923611111111,0,0)" xlink:href="#aT"/><use transform="matrix(0.006618923611111111,0,0,0.006618923611111111,8.134657118055555,0)" xlink:href="#aK"/><use transform="matrix(0.006618923611111111,0,0,0.006618923611111111,16.26931423611111,0)" xlink:href="#aG"/><use transform="matrix(0.006618923611111111,0,0,0.006618923611111111,24.403971354166664,0)" xlink:href="#aF"/><use transform="matrix(0.006618923611111111,0,0,0.006618923611111111,32.53862847222222,0)" xlink:href="#aC"/><use transform="matrix(0.006618923611111111,0,0,0.006618923611111111,40.67328559027778,0)" xlink:href="#aD"/><path fill="#3a414a" d="M-.68 2.88h50.16v.56H-.68z"/><use transform="matrix(0.006618923611111111,0,0,0.006618923611111111,48.807942708333336,0)" xlink:href="#aI"/></g><path fill="#3a414a" d="M839-1102c70 0 148 7 206 17v167c-112-18-268-36-363 15-129 69-208 203-208 395V0H294c-10-367 32-789-52-1082h171c21 75 41 161 48 250h5c67-152 152-270 373-270" id="aU"/><path fill="#3a414a" d="M334-464v-160h560v160H334" id="aV"/><path fill="#3a414a" d="M648-963c-190 6-283 138-283 336V0H185v-1484h181c-2 197 6 404-9 587h3c62-120 159-205 339-205 242 0 351 135 350 381V0H868v-695c1-168-57-273-220-268" id="aW"/><path fill="#3a414a" d="M1048-32c-2 300-135 456-433 456-222-1-358-88-400-267l184-25c22 99 100 157 222 156 184-2 248-125 248-315 0-64 3-133-2-194C807-100 706-13 524-12c-306 0-381-228-381-537 0-318 85-550 400-550 164 0 271 83 325 202h3c1-60 3-134 12-185h171c-13 339-4 702-6 1050zM585-145c210-8 284-178 284-406 0-192-52-331-177-392-33-16-69-22-104-22-223 2-259 184-259 414 0 229 31 415 256 406" id="aX"/><g id="r"><use transform="matrix(0.006618923611111111,0,0,0.006618923611111111,0,0)" xlink:href="#aH"/><use transform="matrix(0.006618923611111111,0,0,0.006618923611111111,8.134657118055555,0)" xlink:href="#aG"/><use transform="matrix(0.006618923611111111,0,0,0.006618923611111111,16.26931423611111,0)" xlink:href="#aL"/><use transform="matrix(0.006618923611111111,0,0,0.006618923611111111,24.403971354166664,0)" xlink:href="#aU"/><use transform="matrix(0.006618923611111111,0,0,0.006618923611111111,32.53862847222222,0)" xlink:href="#aG"/><use transform="matrix(0.006618923611111111,0,0,0.006618923611111111,40.67328559027778,0)" xlink:href="#aV"/><use transform="matrix(0.006618923611111111,0,0,0.006618923611111111,48.807942708333336,0)" xlink:href="#aK"/><use transform="matrix(0.006618923611111111,0,0,0.006618923611111111,56.942599826388886,0)" xlink:href="#aW"/><use transform="matrix(0.006618923611111111,0,0,0.006618923611111111,65.07725694444444,0)" xlink:href="#aL"/><use transform="matrix(0.006618923611111111,0,0,0.006618923611111111,73.2119140625,0)" xlink:href="#aU"/><use transform="matrix(0.006618923611111111,0,0,0.006618923611111111,81.34657118055556,0)" xlink:href="#aX"/><use transform="matrix(0.006618923611111111,0,0,0.006618923611111111,89.48122829861111,0)" xlink:href="#aF"/><use transform="matrix(0.006618923611111111,0,0,0.006618923611111111,97.61588541666667,0)" xlink:href="#aD"/><use transform="matrix(0.006618923611111111,0,0,0.006618923611111111,105.75054253472223,0)" xlink:href="#aX"/></g><path fill="#3a414a" d="M709-1193V0H519v-1193H76v-156h1076v156H709" id="aY"/><path fill="#3a414a" d="M904-1102c199 0 220 177 220 381V0H956v-686c-3-114 0-215-60-264-70-33-125-4-158 71-26 56-39 140-39 252V0H531v-686c-3-114-1-215-61-264-78-41-136 24-157 84-24 69-39 159-39 259V0H105c-3-360 6-732-6-1082h149c6 50 3 123 8 175 36-100 83-195 216-195 135 0 166 79 196 196 42-105 93-196 236-196" id="aZ"/><path fill="#3a414a" d="M617-1102c355 0 481 238 477 599H322c5 222 84 388 301 388 144 0 244-59 284-166l158 45C1002-72 854 20 623 20c-342 0-490-220-490-568 0-346 151-554 484-554zm291 461c-18-192-90-328-289-328-194 0-287 128-295 328h584" id="ba"/><g id="t"><use transform="matrix(0.006618923611111111,0,0,0.006618923611111111,0,0)" xlink:href="#aY"/><use transform="matrix(0.006618923611111111,0,0,0.006618923611111111,8.134657118055555,0)" xlink:href="#aF"/><use transform="matrix(0.006618923611111111,0,0,0.006618923611111111,16.26931423611111,0)" xlink:href="#aZ"/><use transform="matrix(0.006618923611111111,0,0,0.006618923611111111,24.403971354166664,0)" xlink:href="#ba"/><path fill="#3a414a" d="M-.68 2.88h33.9v.56H-.7z"/><use transform="matrix(0.006618923611111111,0,0,0.006618923611111111,32.53862847222222,0)" xlink:href="#aI"/></g><path fill="#3a414a" d="M162 0v-1349h919v156H353v422h668v154H353v461h769V0H162" id="bb"/><path fill="#3a414a" d="M715 0H502L69-1082h202c94 253 197 500 285 758 19 57 36 126 52 183 96-335 234-626 350-941h201" id="bc"/><path fill="#3a414a" d="M168 279c222 39 310-114 368-290L66-1082h192c120 299 249 590 362 896 115-301 235-597 351-896h190L705 0c-65 164-130 320-275 396-67 36-177 35-262 18V279" id="bd"/><g id="u"><use transform="matrix(0.006618923611111111,0,0,0.006618923611111111,0,0)" xlink:href="#bb"/><use transform="matrix(0.006618923611111111,0,0,0.006618923611111111,8.134657118055555,0)" xlink:href="#bc"/><use transform="matrix(0.006618923611111111,0,0,0.006618923611111111,16.26931423611111,0)" xlink:href="#ba"/><use transform="matrix(0.006618923611111111,0,0,0.006618923611111111,24.403971354166664,0)" xlink:href="#aU"/><use transform="matrix(0.006618923611111111,0,0,0.006618923611111111,32.53862847222222,0)" xlink:href="#bd"/></g><path fill="#3a414a" d="M1018 0H814c-67-224-138-444-200-673C552-442 476-224 407 0H204L21-1082h178c43 310 105 601 126 933 54-225 128-425 193-638h193c63 212 134 415 185 638 22-336 90-622 136-933h176" id="be"/><path fill="#3a414a" d="M914 0L548-499l-132 98V0H236v-1484h180v927l475-525h211L663-617 1125 0H914" id="bf"/><g id="v"><use transform="matrix(0.006618923611111111,0,0,0.006618923611111111,0,0)" xlink:href="#be"/><use transform="matrix(0.006618923611111111,0,0,0.006618923611111111,8.134657118055555,0)" xlink:href="#ba"/><use transform="matrix(0.006618923611111111,0,0,0.006618923611111111,16.26931423611111,0)" xlink:href="#ba"/><use transform="matrix(0.006618923611111111,0,0,0.006618923611111111,24.403971354166664,0)" xlink:href="#bf"/><use transform="matrix(0.006618923611111111,0,0,0.006618923611111111,32.53862847222222,0)" xlink:href="#aE"/><use transform="matrix(0.006618923611111111,0,0,0.006618923611111111,40.67328559027778,0)" xlink:href="#aL"/><use transform="matrix(0.006618923611111111,0,0,0.006618923611111111,48.807942708333336,0)" xlink:href="#bd"/></g><g id="w"><use transform="matrix(0.006618923611111111,0,0,0.006618923611111111,0,0)" xlink:href="#aL"/><use transform="matrix(0.006618923611111111,0,0,0.006618923611111111,8.134657118055555,0)" xlink:href="#aG"/></g><path fill="#3a414a" d="M148-1120c216-7 379-89 463-229h166v1204h353V0H157v-145h439v-1021c-79 124-254 184-448 194v-148" id="bg"/><path fill="#3a414a" d="M698-1104c312 3 392 244 392 558 0 315-82 566-392 566-169 0-277-65-331-184h-5c8 188 2 394 4 589H185V-858c0-76-1-156-6-224h175c6 52 9 120 10 178h4c58-122 150-202 330-200zm-49 991c225 0 255-203 255-433 0-225-32-419-253-419-236 0-285 192-285 441 0 237 53 411 283 411" id="bh"/><g id="x"><use transform="matrix(0.006618923611111111,0,0,0.006618923611111111,0,0)" xlink:href="#bg"/><use transform="matrix(0.006618923611111111,0,0,0.006618923611111111,8.134657118055555,0)" xlink:href="#bg"/><use transform="matrix(0.006618923611111111,0,0,0.006618923611111111,16.26931423611111,0)" xlink:href="#bh"/><use transform="matrix(0.006618923611111111,0,0,0.006618923611111111,24.403971354166664,0)" xlink:href="#aZ"/></g><path fill="#333" d="M137 0h-34L2-248h35l83 218 83-218h36" id="bi"/><g id="y"><use transform="matrix(0.04938271604938272,0,0,0.04938271604938272,0,0)" xlink:href="#bi"/><use transform="matrix(0.04938271604938272,0,0,0.04938271604938272,10.864197530864198,0)" xlink:href="#ae"/><use transform="matrix(0.04938271604938272,0,0,0.04938271604938272,20.74074074074074,0)" xlink:href="#an"/><use transform="matrix(0.04938271604938272,0,0,0.04938271604938272,30.617283950617285,0)" xlink:href="#al"/><use transform="matrix(0.04938271604938272,0,0,0.04938271604938272,34.51851851851852,0)" xlink:href="#ac"/><use transform="matrix(0.04938271604938272,0,0,0.04938271604938272,43.407407407407405,0)" xlink:href="#ai"/><use transform="matrix(0.04938271604938272,0,0,0.04938271604938272,47.30864197530864,0)" xlink:href="#ae"/></g><path fill="#3a414a" d="M59-47c-2 24 18 29 38 22v24C64 9 27 4 27-40v-127H5v-23h24l9-43h21v43h35v23H59v120" id="bj"/><path fill="#3a414a" d="M141-36C126-15 110 5 73 4 37 3 15-17 15-53c-1-64 63-63 125-63 3-35-9-54-41-54-24 1-41 7-42 31l-33-3c5-37 33-52 76-52 45 0 72 20 72 64v82c-1 20 7 32 28 27v20c-31 9-61-2-59-35zM48-53c0 20 12 33 32 33 41-3 63-29 60-74-43 2-92-5-92 41" id="bk"/><path fill="#3a414a" d="M114-163C36-179 61-72 57 0H25l-1-190h30c1 12-1 29 2 39 6-27 23-49 58-41v29" id="bl"/><path fill="#3a414a" d="M16-82v-28h88v28H16" id="bm"/><path fill="#3a414a" d="M177-190C167-65 218 103 67 71c-23-6-38-20-44-43l32-5c15 47 100 32 89-28v-30C133-14 115 1 83 1 29 1 15-40 15-95c0-56 16-97 71-98 29-1 48 16 59 35 1-10 0-23 2-32h30zM94-22c36 0 50-32 50-73 0-42-14-75-50-75-39 0-46 34-46 75s6 73 46 73" id="bn"/><path fill="#3a414a" d="M24-231v-30h32v30H24zM24 0v-190h32V0H24" id="bo"/><path fill="#3a414a" d="M117-194c89-4 53 116 60 194h-32v-121c0-31-8-49-39-48C34-167 62-67 57 0H25l-1-190h30c1 10-1 24 2 32 11-22 29-35 61-36" id="bp"/><g id="z"><use transform="matrix(0.05,0,0,0.05,0,0)" xlink:href="#at"/><use transform="matrix(0.05,0,0,0.05,5,0)" xlink:href="#au"/><use transform="matrix(0.05,0,0,0.05,14,0)" xlink:href="#bj"/><use transform="matrix(0.05,0,0,0.05,19,0)" xlink:href="#bk"/><use transform="matrix(0.05,0,0,0.05,29,0)" xlink:href="#bl"/><use transform="matrix(0.05,0,0,0.05,34.95,0)" xlink:href="#bj"/><use transform="matrix(0.05,0,0,0.05,39.95,0)" xlink:href="#bm"/><use transform="matrix(0.05,0,0,0.05,45.900000000000006,0)" xlink:href="#av"/><use transform="matrix(0.05,0,0,0.05,54.900000000000006,0)" xlink:href="#aw"/><use transform="matrix(0.05,0,0,0.05,64.9,0)" xlink:href="#bk"/><use transform="matrix(0.05,0,0,0.05,74.9,0)" xlink:href="#bl"/><use transform="matrix(0.05,0,0,0.05,80.85000000000001,0)" xlink:href="#bn"/><use transform="matrix(0.05,0,0,0.05,90.85000000000001,0)" xlink:href="#bo"/><use transform="matrix(0.05,0,0,0.05,94.80000000000001,0)" xlink:href="#bp"/><use transform="matrix(0.05,0,0,0.05,104.80000000000001,0)" xlink:href="#bn"/></g><path fill="#3a414a" d="M101-251c82-7 93 87 43 132L82-64C71-53 59-42 53-27h129V0H18c2-99 128-94 128-182 0-28-16-43-45-43s-46 15-49 41l-32-3c6-41 34-60 81-64" id="bq"/><path fill="#3a414a" d="M101-251c68 0 85 55 85 127S166 4 100 4C33 4 14-52 14-124c0-73 17-127 87-127zm-1 229c47 0 54-49 54-102s-4-102-53-102c-51 0-55 48-55 102 0 53 5 102 54 102" id="br"/><path fill="#3a414a" d="M27 0v-27h64v-190l-56 39v-29l58-41h29v221h61V0H27" id="bs"/><g id="A"><use transform="matrix(0.05,0,0,0.05,0,0)" xlink:href="#bq"/><use transform="matrix(0.05,0,0,0.05,10,0)" xlink:href="#br"/><use transform="matrix(0.05,0,0,0.05,20,0)" xlink:href="#bs"/></g><path fill="#3a414a" d="M212-179c-10-28-35-45-73-45-59 0-87 40-87 99 0 60 29 101 89 101 43 0 62-24 78-52l27 14C228-24 195 4 139 4 59 4 22-46 18-125c-6-104 99-153 187-111 19 9 31 26 39 46" id="bt"/><g id="B"><use transform="matrix(0.05,0,0,0.05,0,0)" xlink:href="#bt"/><use transform="matrix(0.05,0,0,0.05,12.950000000000001,0)" xlink:href="#bl"/><use transform="matrix(0.05,0,0,0.05,18.900000000000002,0)" xlink:href="#ax"/><use transform="matrix(0.05,0,0,0.05,28.900000000000002,0)" xlink:href="#bk"/><use transform="matrix(0.05,0,0,0.05,38.900000000000006,0)" xlink:href="#bj"/><use transform="matrix(0.05,0,0,0.05,43.900000000000006,0)" xlink:href="#ax"/><use transform="matrix(0.05,0,0,0.05,53.900000000000006,0)" xlink:href="#ay"/></g><path fill="#3a414a" d="M100-194c62-1 85 37 85 99 1 63-27 99-86 99S16-35 15-95c0-66 28-99 85-99zM99-20c44 1 53-31 53-75 0-43-8-75-51-75s-53 32-53 75 10 74 51 75" id="bu"/><g id="C"><use transform="matrix(0.03765432098765432,0,0,0.03765432098765432,0,0)" xlink:href="#av"/><use transform="matrix(0.03765432098765432,0,0,0.03765432098765432,6.777777777777777,0)" xlink:href="#bu"/><use transform="matrix(0.03765432098765432,0,0,0.03765432098765432,14.30864197530864,0)" xlink:href="#bp"/><use transform="matrix(0.03765432098765432,0,0,0.03765432098765432,21.83950617283951,0)" xlink:href="#ay"/><use transform="matrix(0.03765432098765432,0,0,0.03765432098765432,29.37037037037037,0)" xlink:href="#bo"/><use transform="matrix(0.03765432098765432,0,0,0.03765432098765432,32.34506172839506,0)" xlink:href="#bj"/><use transform="matrix(0.03765432098765432,0,0,0.03765432098765432,36.11049382716049,0)" xlink:href="#bo"/><use transform="matrix(0.03765432098765432,0,0,0.03765432098765432,39.08518518518518,0)" xlink:href="#bu"/><use transform="matrix(0.03765432098765432,0,0,0.03765432098765432,46.61604938271604,0)" xlink:href="#bp"/><use transform="matrix(0.03765432098765432,0,0,0.03765432098765432,54.1469135802469,0)" xlink:href="#bk"/><use transform="matrix(0.03765432098765432,0,0,0.03765432098765432,61.67777777777776,0)" xlink:href="#aA"/></g><path fill="#3a414a" d="M141 0L90-78 38 0H4l68-98-65-92h35l48 74 47-74h35l-64 92 68 98h-35" id="bv"/><g id="D"><use transform="matrix(0.03765432098765432,0,0,0.03765432098765432,0,0)" xlink:href="#ax"/><use transform="matrix(0.03765432098765432,0,0,0.03765432098765432,7.530864197530864,0)" xlink:href="#bv"/><use transform="matrix(0.03765432098765432,0,0,0.03765432098765432,14.30864197530864,0)" xlink:href="#ax"/><use transform="matrix(0.03765432098765432,0,0,0.03765432098765432,21.83950617283951,0)" xlink:href="#av"/><use transform="matrix(0.03765432098765432,0,0,0.03765432098765432,28.617283950617285,0)" xlink:href="#az"/><use transform="matrix(0.03765432098765432,0,0,0.03765432098765432,36.14814814814815,0)" xlink:href="#bj"/><use transform="matrix(0.03765432098765432,0,0,0.03765432098765432,39.91358024691358,0)" xlink:href="#bo"/><use transform="matrix(0.03765432098765432,0,0,0.03765432098765432,42.888271604938275,0)" xlink:href="#bu"/><use transform="matrix(0.03765432098765432,0,0,0.03765432098765432,50.41913580246914,0)" xlink:href="#bp"/></g><path fill="#3a414a" d="M18-150v-26h174v26H18zm0 90v-26h174v26H18" id="bw"/><g id="E"><use transform="matrix(0.05,0,0,0.05,0,0)" xlink:href="#aA"/><use transform="matrix(0.05,0,0,0.05,3.95,0)" xlink:href="#bu"/><use transform="matrix(0.05,0,0,0.05,13.949999999999998,0)" xlink:href="#av"/><use transform="matrix(0.05,0,0,0.05,22.95,0)" xlink:href="#bk"/><use transform="matrix(0.05,0,0,0.05,32.95,0)" xlink:href="#bj"/><use transform="matrix(0.05,0,0,0.05,37.95,0)" xlink:href="#bo"/><use transform="matrix(0.05,0,0,0.05,41.900000000000006,0)" xlink:href="#bu"/><use transform="matrix(0.05,0,0,0.05,51.900000000000006,0)" xlink:href="#bp"/><use transform="matrix(0.05,0,0,0.05,61.900000000000006,0)" xlink:href="#bw"/><use transform="matrix(0.05,0,0,0.05,72.4,0)" xlink:href="#bw"/><use transform="matrix(0.05,0,0,0.05,82.9,0)" xlink:href="#bv"/></g><path fill="#3a414a" d="M234-2c-28 10-62 0-77-18C117 19 8 12 13-65c3-43 29-61 60-76-25-40-17-114 47-108 35 3 59 15 59 50 0 44-40 53-71 69 14 26 32 50 51 72 14-21 24-43 30-72l26 8c-9 33-21 57-38 82 13 13 33 22 57 15v23zM97-151c25-10 52-18 56-48-1-18-13-29-33-29-42 0-39 50-23 77zM42-66c-3 51 71 58 98 28-20-24-41-51-56-80-23 10-40 24-42 52" id="bx"/><g id="F"><use transform="matrix(0.05,0,0,0.05,0,0)" xlink:href="#bx"/><use transform="matrix(0.05,0,0,0.05,12,0)" xlink:href="#bx"/></g><g id="G"><use transform="matrix(0.05,0,0,0.05,0,0)" xlink:href="#ar"/><use transform="matrix(0.05,0,0,0.05,12,0)" xlink:href="#aq"/><use transform="matrix(0.05,0,0,0.05,26,0)" xlink:href="#bt"/></g><path fill="#3a414a" d="M18-100v-36l175-74v27L42-118l151 64v27" id="by"/><use transform="matrix(0.05,0,0,0.05,0,0)" xlink:href="#by" id="H"/><path fill="#3a414a" d="M54-142c48-35 137-8 131 61C196 18 31 33 14-55l32-4c7 23 22 37 52 37 35-1 51-22 54-58 4-55-73-65-99-34H22l8-134h141v27H59" id="bz"/><path fill="#3a414a" d="M252-156c43 0 55 33 55 80 0 46-13 78-56 78-42 0-55-33-55-78 0-48 12-80 56-80zM93 0H65l162-248h28zM13-171c-1-47 13-79 56-79s55 33 55 79-13 79-55 79c-43 0-56-33-56-79zM251-17c28 0 30-29 30-59 0-31-1-60-29-60-29 0-31 29-31 60 0 29 2 59 30 59zM69-112c27 0 28-30 29-59 0-31-1-60-29-60-29 0-30 30-30 60s2 59 30 59" id="bA"/><g id="I"><use transform="matrix(0.05,0,0,0.05,0,0)" xlink:href="#bz"/><use transform="matrix(0.05,0,0,0.05,10,0)" xlink:href="#br"/><use transform="matrix(0.05,0,0,0.05,20,0)" xlink:href="#bA"/></g></defs></g></svg>