<svg xmlns="http://www.w3.org/2000/svg" xmlns:xlink="http://www.w3.org/1999/xlink" xmlns:lucid="lucid" width="1060" height="806"><g transform="translate(-460 -200)" lucid:page-tab-id="0_0"><path d="M0 0h1760v1360H0z" fill="#e0f5eb"/><path d="M880 688a8 8 0 0 1 8-8h199.04a8 8 0 0 1 8 8v84a8 8 0 0 1-8 8H888a8 8 0 0 1-8-8z" stroke="#3a414a" fill="#fff"/><use xlink:href="#a" transform="matrix(1,0,0,1,880,680) translate(5.01 55.025)"/><use xlink:href="#b" transform="matrix(1,0,0,1,880,680) translate(10.01 55.025)"/><use xlink:href="#c" transform="matrix(1,0,0,1,880,680) translate(63.01 55.025)"/><path d="M480 585.67a8 8 0 0 1 8-8h159a8 8 0 0 1 8 8v4.92a17.07 17.07 0 0 1-5 12.07 17.07 17.07 0 0 1-12.07 5H488a8 8 0 0 1-8-8z" fill="#fff"/><path d="M655 577.67v20l-10 10H480" stroke="#333" fill="none"/><path d="M480 585.67a8 8 0 0 1 8-8h1004a8 8 0 0 1 8 8V812a8 8 0 0 1-8 8H488a8 8 0 0 1-8-8z" stroke="#333" fill="none"/><use xlink:href="#d" transform="matrix(1,0,0,1,488,577.6655519423589) translate(14.87037037037036 18.555555555555557)"/><use xlink:href="#e" transform="matrix(1,0,0,1,488,577.6655519423589) translate(65.19135802469135 18.555555555555557)"/><use xlink:href="#f" transform="matrix(1,0,0,1,488,577.6655519423589) translate(80.00617283950618 18.555555555555557)"/><use xlink:href="#g" transform="matrix(1,0,0,1,492,615.6655519423589) translate(7.876543209876537 18.555555555555557)"/><use xlink:href="#h" transform="matrix(1,0,0,1,492,615.6655519423589) translate(57.20987654320987 18.555555555555557)"/><use xlink:href="#i" transform="matrix(1,0,0,1,492,615.6655519423589) translate(81.90123456790124 18.555555555555557)"/><path d="M698.7 342.45v9.96m0 9.96v19.9m0 9.97v19.9m0 9.96V442m0 9.96v19.9m0 9.97v19.9m0 9.96v19.9m0 9.96v19.9m0 9.96v19.9m0 9.97v19.9m0 9.95v19.9m0 9.97v19.9m0 9.97v19.9m0 9.95v19.9m0 9.97v19.9m0 9.96v19.9m0 9.97v19.9m0 9.97v19.9m0 9.96v19.9m0 9.97v19.9m0 9.96v19.92m0 9.96v19.9m0 9.96v9.96" stroke="#333" fill="none"/><path d="M699.2 342.46h-1v-.5h1z" stroke="#333" stroke-width=".05" fill="#333"/><path d="M698.7 999.5v.5" stroke="#333" fill="none"/><path d="M679.76 417.73a8 8 0 0 1 8-8h24a8 8 0 0 1 8 8V532a8 8 0 0 1-8 8h-24a8 8 0 0 1-8-8z" stroke="#f2f2f2" fill="#979ea8"/><path d="M1055.04 342.45v10.1m0 10.12v20.23m0 10.1v20.23m0 10.12v20.22m0 10.1v20.24m0 10.12v20.22m0 10.1v20.24m0 10.1v20.23m0 10.12v20.23m0 10.1v20.23m0 10.12v20.22m0 10.1v20.24m0 10.1v20.23m0 10.1v20.23m0 10.1v20.23m0 10.1v20.24m0 10.1v20.23m0 10.12v20.22m0 10.1v20.23m0 10.12v20.22m0 10.1v20.24m0 10.1v10.12" stroke="#333" fill="none"/><path d="M1055.54 342.46h-1v-.5h1z" stroke="#333" stroke-width=".05" fill="#333"/><path d="M1055.04 979.5v.5" stroke="#333" fill="none"/><path d="M1035.04 608a8 8 0 0 1 8-8h24a8 8 0 0 1 8 8v304a8 8 0 0 1-8 8h-24a8 8 0 0 1-8-8z" stroke="#f2f2f2" fill="#979ea8"/><path d="M603.65 228a8 8 0 0 1 8-8h174.07a8 8 0 0 1 8 8v106a8 8 0 0 1-8 8H611.65a8 8 0 0 1-8-8z" stroke="#000" stroke-opacity="0" fill="#54c45e"/><use xlink:href="#j" transform="matrix(1,0,0,1,611.6496896262572,228) translate(33.52469135802468 56.55555555555555)"/><use xlink:href="#k" transform="matrix(1,0,0,1,611.6496896262572,228) translate(74.31481481481481 56.55555555555555)"/><path d="M960 228a8 8 0 0 1 8-8h174.08a8 8 0 0 1 8 8v106a8 8 0 0 1-8 8H968a8 8 0 0 1-8-8z" stroke="#000" stroke-opacity="0" fill="#ffe342"/><use xlink:href="#l" transform="matrix(1,0,0,1,967.9999999999999,228) translate(45.129629629629626 45.888888888888886)"/><use xlink:href="#m" transform="matrix(1,0,0,1,967.9999999999999,228) translate(45.72222222222222 67.22222222222223)"/><path d="M720.67 420.4h156.16v-.02h140.28" stroke="#3a414a" fill="none"/><path d="M720.68 420.9h-.5v-1h.5z" stroke="#3a414a" stroke-width=".05" fill="#3a414a"/><path d="M1031.87 420.38l-14.27 4.64v-9.27z" stroke="#3a414a" fill="#3a414a"/><use xlink:href="#n" transform="matrix(1,0,0,1,811.5490982374357,394.7822313292573) translate(0.0049999999999954525 14.4)"/><use xlink:href="#o" transform="matrix(1,0,0,1,811.5490982374357,394.7822313292573) translate(53.605 14.4)"/><path d="M760 429.54a8 8 0 0 1 8-8h224a8 8 0 0 1 8 8v67.2a8 8 0 0 1-8 8H768a8 8 0 0 1-8-8z" stroke="#000" stroke-opacity="0" fill="#fff" fill-opacity="0"/><use xlink:href="#p" transform="matrix(1,0,0,1,765.0000000000002,426.53567178966824) translate(0 17.779296875)"/><use xlink:href="#q" transform="matrix(1,0,0,1,765.0000000000002,426.53567178966824) translate(65.07725694444444 17.779296875)"/><use xlink:href="#r" transform="matrix(1,0,0,1,765.0000000000002,426.53567178966824) translate(0 34.045963541666666)"/><use xlink:href="#s" transform="matrix(1,0,0,1,765.0000000000002,426.53567178966824) translate(73.2119140625 34.045963541666666)"/><use xlink:href="#t" transform="matrix(1,0,0,1,765.0000000000002,426.53567178966824) translate(138.28917100694446 34.045963541666666)"/><use xlink:href="#u" transform="matrix(1,0,0,1,765.0000000000002,426.53567178966824) translate(0 50.31263020833333)"/><use xlink:href="#v" transform="matrix(1,0,0,1,765.0000000000002,426.53567178966824) translate(0 66.579296875)"/><path d="M1033.96 388a8 8 0 0 1 8-8h24a8 8 0 0 1 8 8v164a8 8 0 0 1-8 8h-24a8 8 0 0 1-8-8z" stroke="#f2f2f2" fill="#979ea8"/><path d="M1375.04 342.45v10.1m0 10.12v20.23m0 10.1v20.23m0 10.12v20.22m0 10.1v20.24m0 10.12v20.22m0 10.1v20.24m0 10.1v20.23m0 10.12v20.23m0 10.1v20.23m0 10.12v20.22m0 10.1v20.24m0 10.1v20.23m0 10.1v20.23m0 10.1v20.23m0 10.1v20.24m0 10.1v20.23m0 10.12v20.22m0 10.1v20.23m0 10.12v20.22m0 10.1v20.24m0 10.1v10.12" stroke="#333" fill="none"/><path d="M1375.54 342.46h-1v-.5h1z" stroke="#333" stroke-width=".05" fill="#333"/><path d="M1375.04 979.5v.5" stroke="#333" fill="none"/><path d="M1280 228a8 8 0 0 1 8-8h174.08a8 8 0 0 1 8 8v106a8 8 0 0 1-8 8H1288a8 8 0 0 1-8-8z" stroke="#000" stroke-opacity="0" fill="#9391ff"/><use xlink:href="#w" transform="matrix(1,0,0,1,1288.0000000000002,228) translate(58.907407407407405 56.55555555555555)"/><path d="M1353.96 618a8 8 0 0 1 8-8h24a8 8 0 0 1 8 8v124a8 8 0 0 1-8 8h-24a8 8 0 0 1-8-8zM678.7 868a8 8 0 0 1 8-8h24a8 8 0 0 1 8 8v74.27a8 8 0 0 1-8 8h-24a8 8 0 0 1-8-8z" stroke="#f2f2f2" fill="#979ea8"/><path d="M1075.95 652.9h138.52v-.02h122.64" stroke="#3a414a" fill="none"/><path d="M1075.97 653.4h-.52v-1h.52z" stroke="#3a414a" stroke-width=".05" fill="#3a414a"/><path d="M1351.87 652.88l-14.26 4.64v-9.27z" stroke="#3a414a" fill="#3a414a"/><use xlink:href="#x" transform="matrix(1,0,0,1,1129.7475931618878,627.2810032411523) translate(0.0049999999999954525 14.4)"/><use xlink:href="#y" transform="matrix(1,0,0,1,1129.7475931618878,627.2810032411523) translate(41.605 14.4)"/><path d="M1353.04 714.32h-128.48a.05.05 0 0 0-.05.06.05.05 0 0 1-.05.05h-112.6" stroke="#3a414a" fill="none"/><path d="M1353.54 714.82h-.5v-1h.5z" stroke="#3a414a" stroke-width=".05" fill="#3a414a"/><path d="M1097.1 714.43l14.25-4.64v9.26z" stroke="#3a414a" fill="#3a414a"/><use xlink:href="#z" transform="matrix(1,0,0,1,1163.0827858388552,718.4287555104515) translate(0.005000000000002558 14.4)"/><path d="M1034.13 891.04H735.5" stroke="#3a414a" fill="none"/><path d="M1034.63 891.54h-.5v-1h.5z" stroke="#3a414a" stroke-width=".05" fill="#3a414a"/><path d="M720.74 891.04L735 886.4v9.28z" stroke="#3a414a" fill="#3a414a"/><use xlink:href="#n" transform="matrix(1,0,0,1,778.9997321852957,895.0413250260272) translate(2.154999999999987 14.4)"/><use xlink:href="#A" transform="matrix(1,0,0,1,778.9997321852957,895.0413250260272) translate(55.75499999999999 14.4)"/><use xlink:href="#B" transform="matrix(1,0,0,1,778.9997321852957,895.0413250260272) translate(0.0049999999999954525 36)"/><use xlink:href="#C" transform="matrix(1,0,0,1,778.9997321852957,895.0413250260272) translate(140.805 36)"/><path d="M1033.04 520.4h-296.4" stroke="#3a414a" fill="none"/><path d="M1033.54 520.9h-.5v-1h.5z" stroke="#3a414a" stroke-width=".05" fill="#3a414a"/><path d="M721.87 520.4l14.27-4.64v9.27z" stroke="#3a414a" fill="#3a414a"/><g><use xlink:href="#D" transform="matrix(1,0,0,1,827.4470032890993,524.3974092190949) translate(0.005000000000002558 14.4)"/><use xlink:href="#E" transform="matrix(1,0,0,1,827.4470032890993,524.3974092190949) translate(35.005 14.4)"/></g><path d="M988.02 679.05h-1v-48.92h1zm50.64-89.88l-40.96.14-1.73.43-1.67.7-1.54.93-1.37 1.18-1.18 1.37-.95 1.55-.7 1.66-.4 1.77-.15 1.82v7.83h-1v-7.88l.15-1.94.46-1.9.75-1.8 1.02-1.68 1.28-1.5 1.5-1.27 1.66-1.02 1.82-.75 1.92-.47 41.07-.13z" stroke="#3a414a" stroke-width=".05" fill="#3a414a"/><path d="M988.02 679.55h-1v-.5h1z" fill="#3a414a"/><path d="M988.04 679.57H987V679h1.04zm-1-.5v.45h.95v-.46z" stroke="#3a414a" stroke-width=".05" fill="#3a414a"/><path d="M1053.42 588.67l-14.27 4.63v-9.27z" fill="#3a414a"/><path d="M1055.04 588.67l-16.4 5.32v-10.66zm-15.4 3.94l12.16-3.93-12.15-3.95z" stroke="#3a414a" stroke-width=".05" fill="#3a414a"/><g><use xlink:href="#F" transform="matrix(1,0,0,1,976.0438095131018,608.5333333333334) translate(0.005000000000000782 14.4)"/></g><path d="M988.02 855.3l.14 1.83.42 1.75.7 1.67.94 1.54 1.17 1.36 1.36 1.17 1.54.95 1.67.7 1.73.4 20.54.15v1l-20.66-.15-1.92-.46-1.82-.75-1.67-1.02-1.5-1.28-1.27-1.5-1.02-1.66-.75-1.8-.46-1.9-.15-1.95V836.8h1zm0-40.1h-1v-34.25h1z" stroke="#3a414a" stroke-width=".05" fill="#3a414a"/><path d="M988.02 780.96h-1v-.5h1z" fill="#3a414a"/><path d="M988.04 781H987v-.57h1.04zm-1-.52v.46h.95v-.46z" stroke="#3a414a" stroke-width=".05" fill="#3a414a"/><path d="M1033 867.33l-14.26 4.64v-9.27z" fill="#3a414a"/><path d="M1034.62 867.33l-16.38 5.32V862zm-15.38 3.95l12.15-3.95-12.16-3.95z" stroke="#3a414a" stroke-width=".05" fill="#3a414a"/><g><use xlink:href="#G" transform="matrix(1,0,0,1,972.8438095131019,815.2) translate(0.005000000000000782 14.4)"/></g><defs><path d="M135-143c-3-34-86-38-87 0 15 53 115 12 119 90S17 21 10-45l28-5c4 36 97 45 98 0-10-56-113-15-118-90-4-57 82-63 122-42 12 7 21 19 24 35" id="H"/><path d="M59-47c-2 24 18 29 38 22v24C64 9 27 4 27-40v-127H5v-23h24l9-43h21v43h35v23H59v120" id="I"/><path d="M141-36C126-15 110 5 73 4 37 3 15-17 15-53c-1-64 63-63 125-63 3-35-9-54-41-54-24 1-41 7-42 31l-33-3c5-37 33-52 76-52 45 0 72 20 72 64v82c-1 20 7 32 28 27v20c-31 9-61-2-59-35zM48-53c0 20 12 33 32 33 41-3 63-29 60-74-43 2-92-5-92 41" id="J"/><path d="M84 4C-5 8 30-112 23-190h32v120c0 31 7 50 39 49 72-2 45-101 50-169h31l1 190h-30c-1-10 1-25-2-33-11 22-28 36-60 37" id="K"/><g id="b"><use transform="matrix(0.05,0,0,0.05,0,0)" xlink:href="#H"/><use transform="matrix(0.05,0,0,0.05,9,0)" xlink:href="#I"/><use transform="matrix(0.05,0,0,0.05,14,0)" xlink:href="#J"/><use transform="matrix(0.05,0,0,0.05,24,0)" xlink:href="#I"/><use transform="matrix(0.05,0,0,0.05,29,0)" xlink:href="#K"/><use transform="matrix(0.05,0,0,0.05,39,0)" xlink:href="#H"/></g><path d="M96-169c-40 0-48 33-48 73s9 75 48 75c24 0 41-14 43-38l32 2c-6 37-31 61-74 61-59 0-76-41-82-99-10-93 101-131 147-64 4 7 5 14 7 22l-32 3c-4-21-16-35-41-35" id="L"/><path d="M106-169C34-169 62-67 57 0H25v-261h32l-1 103c12-21 28-36 61-36 89 0 53 116 60 194h-32v-121c2-32-8-49-39-48" id="M"/><path d="M117-194c89-4 53 116 60 194h-32v-121c0-31-8-49-39-48C34-167 62-67 57 0H25l-1-190h30c1 10-1 24 2 32 11-22 29-35 61-36" id="N"/><path d="M177-190C167-65 218 103 67 71c-23-6-38-20-44-43l32-5c15 47 100 32 89-28v-30C133-14 115 1 83 1 29 1 15-40 15-95c0-56 16-97 71-98 29-1 48 16 59 35 1-10 0-23 2-32h30zM94-22c36 0 50-32 50-73 0-42-14-75-50-75-39 0-46 34-46 75s6 73 46 73" id="O"/><path d="M100-194c63 0 86 42 84 106H49c0 40 14 67 53 68 26 1 43-12 49-29l28 8c-11 28-37 45-77 45C44 4 14-33 15-96c1-61 26-98 85-98zm52 81c6-60-76-77-97-28-3 7-6 17-6 28h103" id="P"/><path d="M85-194c31 0 48 13 60 33l-1-100h32l1 261h-30c-2-10 0-23-3-31C134-8 116 4 85 4 32 4 16-35 15-94c0-66 23-100 70-100zm9 24c-40 0-46 34-46 75 0 40 6 74 45 74 42 0 51-32 51-76 0-42-9-74-50-73" id="Q"/><path d="M103-251c84 0 111 97 45 133-19 10-37 24-39 52H78c0-63 77-55 77-114 0-30-21-42-52-43-32 0-53 17-56 46l-32-2c7-45 34-72 88-72zM77 0v-35h34V0H77" id="R"/><g id="c"><use transform="matrix(0.05,0,0,0.05,0,0)" xlink:href="#L"/><use transform="matrix(0.05,0,0,0.05,9,0)" xlink:href="#M"/><use transform="matrix(0.05,0,0,0.05,19,0)" xlink:href="#J"/><use transform="matrix(0.05,0,0,0.05,29,0)" xlink:href="#N"/><use transform="matrix(0.05,0,0,0.05,39,0)" xlink:href="#O"/><use transform="matrix(0.05,0,0,0.05,49,0)" xlink:href="#P"/><use transform="matrix(0.05,0,0,0.05,59,0)" xlink:href="#Q"/><use transform="matrix(0.05,0,0,0.05,69,0)" xlink:href="#R"/></g><path fill="#333" d="M11 0l48-248h184l-5 28H87l-15 79h140l-5 27H67L50-27h158l-5 27H11" id="S"/><path fill="#333" d="M89 0H52L20-190h33L74-25l89-165h34" id="T"/><path fill="#333" d="M111-194c62-3 86 47 72 106H45c-7 38 6 69 45 68 27-1 43-14 53-32l24 11C152-15 129 4 87 4 38 3 12-23 12-71c0-70 32-119 99-123zm44 81c14-66-71-72-95-28-4 8-8 17-11 28h106" id="U"/><path fill="#333" d="M66-151c12-25 30-51 66-40l-6 26C45-176 58-65 38 0H6l36-190h30" id="V"/><path fill="#333" d="M198-190L69 30C53 58 25 83-20 72c4-11-1-27 19-22 33-1 43-29 59-52L20-190h32L79-34l84-156h35" id="W"/><g id="d"><use transform="matrix(0.04938271604938272,0,0,0.04938271604938272,0,0)" xlink:href="#S"/><use transform="matrix(0.04938271604938272,0,0,0.04938271604938272,11.851851851851853,0)" xlink:href="#T"/><use transform="matrix(0.04938271604938272,0,0,0.04938271604938272,20.74074074074074,0)" xlink:href="#U"/><use transform="matrix(0.04938271604938272,0,0,0.04938271604938272,30.617283950617285,0)" xlink:href="#V"/><use transform="matrix(0.04938271604938272,0,0,0.04938271604938272,36.49382716049383,0)" xlink:href="#W"/></g><path fill="#333" d="M67-158c22-48 132-52 116 29L158 0h-32l25-140c3-38-53-32-70-12C52-117 51-52 38 0H6l36-190h30" id="X"/><use transform="matrix(0.04938271604938272,0,0,0.04938271604938272,0,0)" xlink:href="#X" id="e"/><path fill="#333" d="M248-111c6-24 9-61-24-58-72 9-57 108-77 169h-31l26-142c3-37-50-30-64-10C52-115 50-51 37 0H6l36-190h30c-1 10-6 24-4 32 13-43 101-52 105 5 13-22 29-41 61-41 90 0 28 129 23 194h-31" id="Y"/><path fill="#333" d="M50-231l6-30h32l-6 30H50zM6 0l37-190h31L37 0H6" id="Z"/><path fill="#333" d="M67 3c-93-2-31-127-26-193h32L48-50c-3 39 53 32 70 12 30-34 30-101 43-152h32L157 0h-30c1-10 6-24 4-33-14 20-29 37-64 36" id="aa"/><path fill="#333" d="M51-54c-9 22 5 41 31 30L79-1C43 14 10-4 19-52l22-115H19l5-23h22l19-43h21l-9 43h35l-4 23H73" id="ab"/><path fill="#333" d="M55-144c13 50 104 24 104 88C159 21 15 23 1-39l26-10c6 40 102 42 102-4-13-50-104-23-104-87 0-71 143-71 148-8l-29 4c-5-35-85-37-89 0" id="ac"/><g id="f"><use transform="matrix(0.04938271604938272,0,0,0.04938271604938272,0,0)" xlink:href="#Y"/><use transform="matrix(0.04938271604938272,0,0,0.04938271604938272,14.765432098765434,0)" xlink:href="#Z"/><use transform="matrix(0.04938271604938272,0,0,0.04938271604938272,18.666666666666668,0)" xlink:href="#X"/><use transform="matrix(0.04938271604938272,0,0,0.04938271604938272,28.543209876543212,0)" xlink:href="#aa"/><use transform="matrix(0.04938271604938272,0,0,0.04938271604938272,38.41975308641976,0)" xlink:href="#ab"/><use transform="matrix(0.04938271604938272,0,0,0.04938271604938272,43.35802469135803,0)" xlink:href="#U"/><use transform="matrix(0.04938271604938272,0,0,0.04938271604938272,53.23456790123457,0)" xlink:href="#ac"/></g><path fill="#333" d="M68-162c25-46 127-43 121 31C183-60 169 1 98 4 69 5 53-11 43-31L36 0H5l52-261h31zm88 36c2-27-9-43-34-43-55 0-70 51-70 103 0 29 15 45 43 46 52 0 58-58 61-106" id="ad"/><path fill="#333" d="M165-48c-4 18 1 34 23 27l-3 20c-29 8-62 0-52-35h-2C116-14 99 4 63 4 30 4 8-16 8-49c0-68 71-67 138-67 10-26 0-56-31-54-26 1-42 9-47 31l-32-5c8-67 160-71 144 15-5 28-9 54-15 81zM42-50c3 52 80 24 89-6 7-12 7-24 11-38-47 1-103-4-100 44" id="ae"/><path fill="#333" d="M127 0L80-88 50-66 37 0H6l51-261h31L57-100l99-90h39l-93 82L161 0h-34" id="af"/><g id="g"><use transform="matrix(0.04938271604938272,0,0,0.04938271604938272,0,0)" xlink:href="#ad"/><use transform="matrix(0.04938271604938272,0,0,0.04938271604938272,9.876543209876544,0)" xlink:href="#V"/><use transform="matrix(0.04938271604938272,0,0,0.04938271604938272,15.753086419753087,0)" xlink:href="#U"/><use transform="matrix(0.04938271604938272,0,0,0.04938271604938272,25.629629629629633,0)" xlink:href="#ae"/><use transform="matrix(0.04938271604938272,0,0,0.04938271604938272,35.50617283950618,0)" xlink:href="#af"/></g><path fill="#333" d="M30-147c31-64 166-65 159 27C183-49 158 1 86 4 9 8 1-88 30-147zM88-20c53 0 68-48 68-100 0-31-11-51-44-50-52 1-68 46-68 97 0 32 13 53 44 53" id="ag"/><g id="h"><use transform="matrix(0.04938271604938272,0,0,0.04938271604938272,0,0)" xlink:href="#ag"/><use transform="matrix(0.04938271604938272,0,0,0.04938271604938272,9.876543209876544,0)" xlink:href="#X"/></g><path fill="#333" d="M103-194c29 0 47 14 56 36 2-11 5-23 8-32h30L160-5C157 61 82 97 21 62 9 55 4 45 1 30l28-7c7 42 83 31 92-3 4-16 9-38 13-55-13 20-29 36-62 36-40 0-60-25-60-64 0-71 23-131 91-131zm4 24c-53 0-58 54-61 104-2 27 10 44 36 44 49 0 65-50 67-102 1-29-15-46-42-46" id="ah"/><g id="i"><use transform="matrix(0.04938271604938272,0,0,0.04938271604938272,0,0)" xlink:href="#ab"/><use transform="matrix(0.04938271604938272,0,0,0.04938271604938272,4.938271604938272,0)" xlink:href="#V"/><use transform="matrix(0.04938271604938272,0,0,0.04938271604938272,10.814814814814817,0)" xlink:href="#Z"/><use transform="matrix(0.04938271604938272,0,0,0.04938271604938272,14.71604938271605,0)" xlink:href="#ah"/><use transform="matrix(0.04938271604938272,0,0,0.04938271604938272,24.592592592592595,0)" xlink:href="#ah"/><use transform="matrix(0.04938271604938272,0,0,0.04938271604938272,34.46913580246914,0)" xlink:href="#U"/><use transform="matrix(0.04938271604938272,0,0,0.04938271604938272,44.345679012345684,0)" xlink:href="#V"/></g><path fill="#333" d="M137-103V0h-34v-103L8-248h37l75 118 75-118h37" id="ai"/><path fill="#333" d="M100-194c62-1 85 37 85 99 1 63-27 99-86 99S16-35 15-95c0-66 28-99 85-99zM99-20c44 1 53-31 53-75 0-43-8-75-51-75s-53 32-53 75 10 74 51 75" id="aj"/><path fill="#333" d="M84 4C-5 8 30-112 23-190h32v120c0 31 7 50 39 49 72-2 45-101 50-169h31l1 190h-30c-1-10 1-25-2-33-11 22-28 36-60 37" id="ak"/><path fill="#333" d="M114-163C36-179 61-72 57 0H25l-1-190h30c1 12-1 29 2 39 6-27 23-49 58-41v29" id="al"/><g id="j"><use transform="matrix(0.04938271604938272,0,0,0.04938271604938272,0,0)" xlink:href="#ai"/><use transform="matrix(0.04938271604938272,0,0,0.04938271604938272,10.222222222222223,0)" xlink:href="#aj"/><use transform="matrix(0.04938271604938272,0,0,0.04938271604938272,20.098765432098766,0)" xlink:href="#ak"/><use transform="matrix(0.04938271604938272,0,0,0.04938271604938272,29.97530864197531,0)" xlink:href="#al"/></g><path fill="#333" d="M115-194c53 0 69 39 70 98 0 66-23 100-70 100C84 3 66-7 56-30L54 0H23l1-261h32v101c10-23 28-34 59-34zm-8 174c40 0 45-34 45-75 0-40-5-75-45-74-42 0-51 32-51 76 0 43 10 73 51 73" id="am"/><path fill="#333" d="M141-36C126-15 110 5 73 4 37 3 15-17 15-53c-1-64 63-63 125-63 3-35-9-54-41-54-24 1-41 7-42 31l-33-3c5-37 33-52 76-52 45 0 72 20 72 64v82c-1 20 7 32 28 27v20c-31 9-61-2-59-35zM48-53c0 20 12 33 32 33 41-3 63-29 60-74-43 2-92-5-92 41" id="an"/><path fill="#333" d="M96-169c-40 0-48 33-48 73s9 75 48 75c24 0 41-14 43-38l32 2c-6 37-31 61-74 61-59 0-76-41-82-99-10-93 101-131 147-64 4 7 5 14 7 22l-32 3c-4-21-16-35-41-35" id="ao"/><path fill="#333" d="M143 0L79-87 56-68V0H24v-261h32v163l83-92h37l-77 82L181 0h-38" id="ap"/><path fill="#333" d="M100-194c63 0 86 42 84 106H49c0 40 14 67 53 68 26 1 43-12 49-29l28 8c-11 28-37 45-77 45C44 4 14-33 15-96c1-61 26-98 85-98zm52 81c6-60-76-77-97-28-3 7-6 17-6 28h103" id="aq"/><path fill="#333" d="M117-194c89-4 53 116 60 194h-32v-121c0-31-8-49-39-48C34-167 62-67 57 0H25l-1-190h30c1 10-1 24 2 32 11-22 29-35 61-36" id="ar"/><path fill="#333" d="M85-194c31 0 48 13 60 33l-1-100h32l1 261h-30c-2-10 0-23-3-31C134-8 116 4 85 4 32 4 16-35 15-94c0-66 23-100 70-100zm9 24c-40 0-46 34-46 75 0 40 6 74 45 74 42 0 51-32 51-76 0-42-9-74-50-73" id="as"/><g id="k"><use transform="matrix(0.04938271604938272,0,0,0.04938271604938272,0,0)" xlink:href="#am"/><use transform="matrix(0.04938271604938272,0,0,0.04938271604938272,9.876543209876544,0)" xlink:href="#an"/><use transform="matrix(0.04938271604938272,0,0,0.04938271604938272,19.75308641975309,0)" xlink:href="#ao"/><use transform="matrix(0.04938271604938272,0,0,0.04938271604938272,28.641975308641978,0)" xlink:href="#ap"/><use transform="matrix(0.04938271604938272,0,0,0.04938271604938272,37.53086419753087,0)" xlink:href="#aq"/><use transform="matrix(0.04938271604938272,0,0,0.04938271604938272,47.40740740740741,0)" xlink:href="#ar"/><use transform="matrix(0.04938271604938272,0,0,0.04938271604938272,57.283950617283956,0)" xlink:href="#as"/></g><path fill="#333" d="M127-220V0H93v-220H8v-28h204v28h-85" id="at"/><path fill="#333" d="M24 0v-261h32V0H24" id="au"/><path fill="#333" d="M210-169c-67 3-38 105-44 169h-31v-121c0-29-5-50-35-48C34-165 62-65 56 0H25l-1-190h30c1 10-1 24 2 32 10-44 99-50 107 0 11-21 27-35 58-36 85-2 47 119 55 194h-31v-121c0-29-5-49-35-48" id="av"/><path fill="#333" d="M59-47c-2 24 18 29 38 22v24C64 9 27 4 27-40v-127H5v-23h24l9-43h21v43h35v23H59v120" id="aw"/><path fill="#333" d="M24-231v-30h32v30H24zM24 0v-190h32V0H24" id="ax"/><g id="l"><use transform="matrix(0.04938271604938272,0,0,0.04938271604938272,0,0)" xlink:href="#at"/><use transform="matrix(0.04938271604938272,0,0,0.04938271604938272,8.839506172839506,0)" xlink:href="#aq"/><use transform="matrix(0.04938271604938272,0,0,0.04938271604938272,18.71604938271605,0)" xlink:href="#au"/><use transform="matrix(0.04938271604938272,0,0,0.04938271604938272,22.617283950617285,0)" xlink:href="#aq"/><use transform="matrix(0.04938271604938272,0,0,0.04938271604938272,32.49382716049383,0)" xlink:href="#av"/><use transform="matrix(0.04938271604938272,0,0,0.04938271604938272,47.25925925925927,0)" xlink:href="#an"/><use transform="matrix(0.04938271604938272,0,0,0.04938271604938272,57.135802469135804,0)" xlink:href="#aw"/><use transform="matrix(0.04938271604938272,0,0,0.04938271604938272,62.074074074074076,0)" xlink:href="#ax"/><use transform="matrix(0.04938271604938272,0,0,0.04938271604938272,65.97530864197532,0)" xlink:href="#ao"/><use transform="matrix(0.04938271604938272,0,0,0.04938271604938272,74.8641975308642,0)" xlink:href="#an"/></g><path fill="#333" d="M266 0h-40l-56-210L115 0H75L2-248h35L96-30l15-64 43-154h32l59 218 59-218h35" id="ay"/><path fill="#333" d="M106-169C34-169 62-67 57 0H25v-261h32l-1 103c12-21 28-36 61-36 89 0 53 116 60 194h-32v-121c2-32-8-49-39-48" id="az"/><path fill="#333" d="M135-143c-3-34-86-38-87 0 15 53 115 12 119 90S17 21 10-45l28-5c4 36 97 45 98 0-10-56-113-15-118-90-4-57 82-63 122-42 12 7 21 19 24 35" id="aA"/><g id="m"><use transform="matrix(0.04938271604938272,0,0,0.04938271604938272,0,0)" xlink:href="#ay"/><use transform="matrix(0.04938271604938272,0,0,0.04938271604938272,16.39506172839506,0)" xlink:href="#aq"/><use transform="matrix(0.04938271604938272,0,0,0.04938271604938272,26.271604938271608,0)" xlink:href="#am"/><use transform="matrix(0.04938271604938272,0,0,0.04938271604938272,36.14814814814815,0)" xlink:href="#az"/><use transform="matrix(0.04938271604938272,0,0,0.04938271604938272,46.0246913580247,0)" xlink:href="#aj"/><use transform="matrix(0.04938271604938272,0,0,0.04938271604938272,55.90123456790124,0)" xlink:href="#aj"/><use transform="matrix(0.04938271604938272,0,0,0.04938271604938272,65.77777777777779,0)" xlink:href="#ap"/><use transform="matrix(0.04938271604938272,0,0,0.04938271604938272,74.66666666666667,0)" xlink:href="#aA"/></g><path fill="#3a414a" d="M30-248c87 1 191-15 191 75 0 78-77 80-158 76V0H30v-248zm33 125c57 0 124 11 124-50 0-59-68-47-124-48v98" id="aB"/><path fill="#3a414a" d="M140-251c81 0 123 46 123 126C263-46 219 4 140 4 59 4 17-45 17-125s42-126 123-126zm0 227c63 0 89-41 89-101s-29-99-89-99c-61 0-89 39-89 99S79-25 140-24" id="aC"/><path fill="#3a414a" d="M185-189c-5-48-123-54-124 2 14 75 158 14 163 119 3 78-121 87-175 55-17-10-28-26-33-46l33-7c5 56 141 63 141-1 0-78-155-14-162-118-5-82 145-84 179-34 5 7 8 16 11 25" id="aD"/><path fill="#3a414a" d="M127-220V0H93v-220H8v-28h204v28h-85" id="aE"/><g id="n"><use transform="matrix(0.05,0,0,0.05,0,0)" xlink:href="#aB"/><use transform="matrix(0.05,0,0,0.05,12,0)" xlink:href="#aC"/><use transform="matrix(0.05,0,0,0.05,26,0)" xlink:href="#aD"/><use transform="matrix(0.05,0,0,0.05,38,0)" xlink:href="#aE"/></g><path fill="#3a414a" d="M0 4l72-265h28L28 4H0" id="aF"/><path fill="#3a414a" d="M206 0h-36l-40-164L89 0H53L-1-190h32L70-26l43-164h34l41 164 42-164h31" id="aG"/><path fill="#3a414a" d="M100-194c63 0 86 42 84 106H49c0 40 14 67 53 68 26 1 43-12 49-29l28 8c-11 28-37 45-77 45C44 4 14-33 15-96c1-61 26-98 85-98zm52 81c6-60-76-77-97-28-3 7-6 17-6 28h103" id="aH"/><path fill="#3a414a" d="M115-194c53 0 69 39 70 98 0 66-23 100-70 100C84 3 66-7 56-30L54 0H23l1-261h32v101c10-23 28-34 59-34zm-8 174c40 0 45-34 45-75 0-40-5-75-45-74-42 0-51 32-51 76 0 43 10 73 51 73" id="aI"/><path fill="#3a414a" d="M106-169C34-169 62-67 57 0H25v-261h32l-1 103c12-21 28-36 61-36 89 0 53 116 60 194h-32v-121c2-32-8-49-39-48" id="aJ"/><path fill="#3a414a" d="M100-194c62-1 85 37 85 99 1 63-27 99-86 99S16-35 15-95c0-66 28-99 85-99zM99-20c44 1 53-31 53-75 0-43-8-75-51-75s-53 32-53 75 10 74 51 75" id="aK"/><path fill="#3a414a" d="M143 0L79-87 56-68V0H24v-261h32v163l83-92h37l-77 82L181 0h-38" id="aL"/><g id="o"><use transform="matrix(0.05,0,0,0.05,0,0)" xlink:href="#aF"/><use transform="matrix(0.05,0,0,0.05,5,0)" xlink:href="#aG"/><use transform="matrix(0.05,0,0,0.05,17.950000000000003,0)" xlink:href="#aH"/><use transform="matrix(0.05,0,0,0.05,27.950000000000003,0)" xlink:href="#aI"/><use transform="matrix(0.05,0,0,0.05,37.95,0)" xlink:href="#aJ"/><use transform="matrix(0.05,0,0,0.05,47.95,0)" xlink:href="#aK"/><use transform="matrix(0.05,0,0,0.05,57.95,0)" xlink:href="#aK"/><use transform="matrix(0.05,0,0,0.05,67.95,0)" xlink:href="#aL"/></g><path fill="#3a414a" d="M709-1193V0H519v-1193H76v-156h1076v156H709" id="aM"/><path fill="#3a414a" d="M839-1102c70 0 148 7 206 17v167c-112-18-268-36-363 15-129 69-208 203-208 395V0H294c-10-367 32-789-52-1082h171c21 75 41 161 48 250h5c67-152 152-270 373-270" id="aN"/><path fill="#3a414a" d="M745-142h380V0H143v-142h422v-798H246v-142h499v940zM545-1292v-192h200v192H545" id="aO"/><path fill="#3a414a" d="M1048-32c-2 300-135 456-433 456-222-1-358-88-400-267l184-25c22 99 100 157 222 156 184-2 248-125 248-315 0-64 3-133-2-194C807-100 706-13 524-12c-306 0-381-228-381-537 0-318 85-550 400-550 164 0 271 83 325 202h3c1-60 3-134 12-185h171c-13 339-4 702-6 1050zM585-145c210-8 284-178 284-406 0-192-52-331-177-392-33-16-69-22-104-22-223 2-259 184-259 414 0 229 31 415 256 406" id="aP"/><path fill="#3a414a" d="M617-1102c355 0 481 238 477 599H322c5 222 84 388 301 388 144 0 244-59 284-166l158 45C1002-72 854 20 623 20c-342 0-490-220-490-568 0-346 151-554 484-554zm291 461c-18-192-90-328-289-328-194 0-287 128-295 328h584" id="aQ"/><g id="p"><use transform="matrix(0.006618923611111111,0,0,0.006618923611111111,0,0)" xlink:href="#aM"/><use transform="matrix(0.006618923611111111,0,0,0.006618923611111111,8.134657118055555,0)" xlink:href="#aN"/><use transform="matrix(0.006618923611111111,0,0,0.006618923611111111,16.26931423611111,0)" xlink:href="#aO"/><use transform="matrix(0.006618923611111111,0,0,0.006618923611111111,24.403971354166664,0)" xlink:href="#aP"/><use transform="matrix(0.006618923611111111,0,0,0.006618923611111111,32.53862847222222,0)" xlink:href="#aP"/><use transform="matrix(0.006618923611111111,0,0,0.006618923611111111,40.67328559027778,0)" xlink:href="#aQ"/><use transform="matrix(0.006618923611111111,0,0,0.006618923611111111,48.807942708333336,0)" xlink:href="#aN"/><path fill="#3a414a" d="M-.68 2.88h66.43v.56H-.68z"/></g><path fill="#3a414a" d="M615-1102c343 0 484 203 482 560-1 347-147 562-488 562-336 0-475-219-479-562-4-349 156-560 485-560zm-8 989c240 0 301-180 301-429 0-245-55-427-290-427-236 0-299 181-299 427 0 243 61 429 288 429" id="aR"/><path fill="#3a414a" d="M706-1102c241 0 344 136 343 381V0H868v-695c1-168-57-273-220-268-190 6-283 138-283 336V0H185c-3-360 6-732-6-1082h170c4 54 7 126 8 185h3c63-121 164-204 346-205" id="aS"/><path fill="#3a414a" d="M496 0v-299h235V0H496zm0-783v-299h235v299H496" id="aT"/><g id="q"><use transform="matrix(0.006618923611111111,0,0,0.006618923611111111,0,0)" xlink:href="#aR"/><use transform="matrix(0.006618923611111111,0,0,0.006618923611111111,8.134657118055555,0)" xlink:href="#aS"/><path fill="#3a414a" d="M-.68 2.88h17.62v.56H-.68z"/><use transform="matrix(0.006618923611111111,0,0,0.006618923611111111,16.26931423611111,0)" xlink:href="#aT"/></g><path fill="#3a414a" d="M650-1214c-281 0-336 244-336 533 0 295 60 546 347 546 188 0 263-142 322-282l159 65C1058-155 935 20 659 20c-401 0-546-295-546-701 0-407 135-689 536-689 264 0 391 146 466 335l-168 65c-47-129-127-244-297-244" id="aU"/><path fill="#3a414a" d="M648-963c-190 6-283 138-283 336V0H185v-1484h181c-2 197 6 404-9 587h3c62-120 159-205 339-205 242 0 351 135 350 381V0H868v-695c1-168-57-273-220-268" id="aV"/><path fill="#3a414a" d="M1000-272c3 95 12 159 101 161 21 0 41-3 59-7V-6c-44 10-86 16-139 16-141 2-191-84-197-217h-6C748-76 648 20 446 20c-207 0-318-120-318-322 0-266 194-348 454-354l236-4c12-191-40-305-222-305-140 0-220 47-232 172l-188-17c33-204 181-292 423-292 255 0 401 118 401 364v466zm-683-27c0 109 63 184 175 182 166-3 259-96 306-217 24-65 20-120 20-200-232 7-501-28-501 235" id="aW"/><g id="r"><use transform="matrix(0.006618923611111111,0,0,0.006618923611111111,0,0)" xlink:href="#aU"/><use transform="matrix(0.006618923611111111,0,0,0.006618923611111111,8.134657118055555,0)" xlink:href="#aV"/><use transform="matrix(0.006618923611111111,0,0,0.006618923611111111,16.26931423611111,0)" xlink:href="#aW"/><use transform="matrix(0.006618923611111111,0,0,0.006618923611111111,24.403971354166664,0)" xlink:href="#aN"/><use transform="matrix(0.006618923611111111,0,0,0.006618923611111111,32.53862847222222,0)" xlink:href="#aP"/><use transform="matrix(0.006618923611111111,0,0,0.006618923611111111,40.67328559027778,0)" xlink:href="#aO"/><use transform="matrix(0.006618923611111111,0,0,0.006618923611111111,48.807942708333336,0)" xlink:href="#aS"/><use transform="matrix(0.006618923611111111,0,0,0.006618923611111111,56.942599826388886,0)" xlink:href="#aP"/></g><path fill="#3a414a" d="M873-819c-18-114-119-146-250-146-163 0-245 50-245 151 0 151 170 148 294 185 182 54 388 94 388 320 0 240-189 325-439 329-245 4-410-69-454-268l159-31c24 133 136 168 295 165 144-2 270-31 270-171 0-164-195-160-331-202-167-52-350-87-350-299 0-218 173-315 413-313 220 2 373 77 412 260" id="aX"/><g id="s"><use transform="matrix(0.006618923611111111,0,0,0.006618923611111111,0,0)" xlink:href="#aX"/><use transform="matrix(0.006618923611111111,0,0,0.006618923611111111,8.134657118055555,0)" xlink:href="#aQ"/><use transform="matrix(0.006618923611111111,0,0,0.006618923611111111,16.26931423611111,0)" xlink:href="#aX"/><use transform="matrix(0.006618923611111111,0,0,0.006618923611111111,24.403971354166664,0)" xlink:href="#aX"/><use transform="matrix(0.006618923611111111,0,0,0.006618923611111111,32.53862847222222,0)" xlink:href="#aO"/><use transform="matrix(0.006618923611111111,0,0,0.006618923611111111,40.67328559027778,0)" xlink:href="#aR"/><use transform="matrix(0.006618923611111111,0,0,0.006618923611111111,48.807942708333336,0)" xlink:href="#aS"/></g><path fill="#3a414a" d="M682 16c-209 0-323-80-324-285v-671H190v-142h170l58-282h120v282h432v142H538v652c2 114 60 155 182 155 106 0 209-16 297-34v137C921-4 806 16 682 16" id="aY"/><path fill="#3a414a" d="M865-914c-3-187-2-380-2-570h180v1261c0 76 1 155 6 223H877c-8-49-9-116-10-174h-5C801-44 708 26 530 26c-135 0-234-46-297-139s-95-232-95-419c0-377 131-566 392-566 176 0 271 63 335 184zm-286-51c-222 0-255 197-255 427 0 229 31 425 253 425 237 0 286-195 286-441 0-238-52-411-284-411" id="aZ"/><g id="t"><use transform="matrix(0.006618923611111111,0,0,0.006618923611111111,0,0)" xlink:href="#aX"/><use transform="matrix(0.006618923611111111,0,0,0.006618923611111111,8.134657118055555,0)" xlink:href="#aY"/><use transform="matrix(0.006618923611111111,0,0,0.006618923611111111,16.26931423611111,0)" xlink:href="#aW"/><use transform="matrix(0.006618923611111111,0,0,0.006618923611111111,24.403971354166664,0)" xlink:href="#aN"/><use transform="matrix(0.006618923611111111,0,0,0.006618923611111111,32.53862847222222,0)" xlink:href="#aY"/><use transform="matrix(0.006618923611111111,0,0,0.006618923611111111,40.67328559027778,0)" xlink:href="#aQ"/><use transform="matrix(0.006618923611111111,0,0,0.006618923611111111,48.807942708333336,0)" xlink:href="#aZ"/></g><path fill="#3a414a" d="M736-142h380V0H134v-142h422v-1200H267v-142h469v1342" id="ba"/><path fill="#3a414a" d="M365-904c58-129 161-200 334-200 130 0 228 46 293 138s98 233 98 420c0 189-34 331-102 425S824 20 698 20c-170 0-275-64-336-184 0 55-3 116-9 164H179c5-68 6-147 6-223v-1261h180c-2 193 4 394-4 580h4zm283 791c221 0 256-197 256-427 0-229-34-425-254-425-236 0-285 195-285 441 0 237 53 411 283 411" id="bb"/><path fill="#3a414a" d="M631 20c-350 0-501-215-501-562 0-355 162-560 502-560 250 0 399 118 446 323l-192 14c-23-124-109-196-262-196-242 0-305 171-305 415 1 245 61 427 304 427 151 0 248-77 267-215l190 12C1039-107 883 20 631 20" id="bc"/><path fill="#3a414a" d="M914 0L548-499l-132 98V0H236v-1484h180v927l475-525h211L663-617 1125 0H914" id="bd"/><g id="u"><use transform="matrix(0.006618923611111111,0,0,0.006618923611111111,0,0)" xlink:href="#aU"/><use transform="matrix(0.006618923611111111,0,0,0.006618923611111111,8.134657118055555,0)" xlink:href="#aW"/><use transform="matrix(0.006618923611111111,0,0,0.006618923611111111,16.26931423611111,0)" xlink:href="#ba"/><use transform="matrix(0.006618923611111111,0,0,0.006618923611111111,24.403971354166664,0)" xlink:href="#ba"/><use transform="matrix(0.006618923611111111,0,0,0.006618923611111111,32.53862847222222,0)" xlink:href="#bb"/><use transform="matrix(0.006618923611111111,0,0,0.006618923611111111,40.67328559027778,0)" xlink:href="#aW"/><use transform="matrix(0.006618923611111111,0,0,0.006618923611111111,48.807942708333336,0)" xlink:href="#bc"/><use transform="matrix(0.006618923611111111,0,0,0.006618923611111111,56.942599826388886,0)" xlink:href="#bd"/><path fill="#3a414a" d="M-.68 2.88h66.43v.56H-.68z"/><use transform="matrix(0.006618923611111111,0,0,0.006618923611111111,65.07725694444444,0)" xlink:href="#aT"/></g><path fill="#3a414a" d="M168 279c222 39 310-114 368-290L66-1082h192c120 299 249 590 362 896 115-301 235-597 351-896h190L705 0c-65 164-130 320-275 396-67 36-177 35-262 18V279" id="be"/><path fill="#3a414a" d="M528 20c-247 0-343-132-343-381v-721h180v686c-4 177 45 284 224 277 194-8 279-136 279-336v-627h181c3 360-6 732 6 1082H885c-4-54-7-126-8-185h-3C809-64 714 20 528 20" id="bf"/><path fill="#3a414a" d="M496 0v-299h235V0H496" id="bg"/><path fill="#3a414a" d="M904-1102c199 0 220 177 220 381V0H956v-686c-3-114 0-215-60-264-70-33-125-4-158 71-26 56-39 140-39 252V0H531v-686c-3-114-1-215-61-264-78-41-136 24-157 84-24 69-39 159-39 259V0H105c-3-360 6-732-6-1082h149c6 50 3 123 8 175 36-100 83-195 216-195 135 0 166 79 196 196 42-105 93-196 236-196" id="bh"/><path fill="#3a414a" d="M114 20l821-1504h178L296 20H114" id="bi"/><g id="v"><use transform="matrix(0.006618923611111111,0,0,0.006618923611111111,0,0)" xlink:href="#be"/><use transform="matrix(0.006618923611111111,0,0,0.006618923611111111,8.134657118055555,0)" xlink:href="#aR"/><use transform="matrix(0.006618923611111111,0,0,0.006618923611111111,16.26931423611111,0)" xlink:href="#bf"/><use transform="matrix(0.006618923611111111,0,0,0.006618923611111111,24.403971354166664,0)" xlink:href="#bg"/><use transform="matrix(0.006618923611111111,0,0,0.006618923611111111,32.53862847222222,0)" xlink:href="#bc"/><use transform="matrix(0.006618923611111111,0,0,0.006618923611111111,40.67328559027778,0)" xlink:href="#aR"/><use transform="matrix(0.006618923611111111,0,0,0.006618923611111111,48.807942708333336,0)" xlink:href="#bh"/><use transform="matrix(0.006618923611111111,0,0,0.006618923611111111,56.942599826388886,0)" xlink:href="#bi"/><use transform="matrix(0.006618923611111111,0,0,0.006618923611111111,65.07725694444444,0)" xlink:href="#bc"/><use transform="matrix(0.006618923611111111,0,0,0.006618923611111111,73.2119140625,0)" xlink:href="#aW"/><use transform="matrix(0.006618923611111111,0,0,0.006618923611111111,81.34657118055556,0)" xlink:href="#ba"/><use transform="matrix(0.006618923611111111,0,0,0.006618923611111111,89.48122829861111,0)" xlink:href="#ba"/><use transform="matrix(0.006618923611111111,0,0,0.006618923611111111,97.61588541666667,0)" xlink:href="#bb"/><use transform="matrix(0.006618923611111111,0,0,0.006618923611111111,105.75054253472223,0)" xlink:href="#aW"/><use transform="matrix(0.006618923611111111,0,0,0.006618923611111111,113.88519965277777,0)" xlink:href="#bc"/><use transform="matrix(0.006618923611111111,0,0,0.006618923611111111,122.01985677083333,0)" xlink:href="#bd"/></g><path fill="#333" d="M137 0h-34L2-248h35l83 218 83-218h36" id="bj"/><g id="w"><use transform="matrix(0.04938271604938272,0,0,0.04938271604938272,0,0)" xlink:href="#bj"/><use transform="matrix(0.04938271604938272,0,0,0.04938271604938272,10.864197530864198,0)" xlink:href="#aq"/><use transform="matrix(0.04938271604938272,0,0,0.04938271604938272,20.74074074074074,0)" xlink:href="#az"/><use transform="matrix(0.04938271604938272,0,0,0.04938271604938272,30.617283950617285,0)" xlink:href="#ax"/><use transform="matrix(0.04938271604938272,0,0,0.04938271604938272,34.51851851851852,0)" xlink:href="#ao"/><use transform="matrix(0.04938271604938272,0,0,0.04938271604938272,43.407407407407405,0)" xlink:href="#au"/><use transform="matrix(0.04938271604938272,0,0,0.04938271604938272,47.30864197530864,0)" xlink:href="#aq"/></g><path fill="#3a414a" d="M143 4C61 4 22-44 18-125c-5-107 100-154 193-111 17 8 29 25 37 43l-32 9c-13-25-37-40-76-40-61 0-88 39-88 99 0 61 29 100 91 101 35 0 62-11 79-27v-45h-74v-28h105v86C228-13 192 4 143 4" id="bk"/><path fill="#3a414a" d="M30 0v-248h187v28H63v79h144v27H63v87h162V0H30" id="bl"/><g id="x"><use transform="matrix(0.05,0,0,0.05,0,0)" xlink:href="#bk"/><use transform="matrix(0.05,0,0,0.05,14,0)" xlink:href="#bl"/><use transform="matrix(0.05,0,0,0.05,26,0)" xlink:href="#aE"/></g><path fill="#3a414a" d="M96-169c-40 0-48 33-48 73s9 75 48 75c24 0 41-14 43-38l32 2c-6 37-31 61-74 61-59 0-76-41-82-99-10-93 101-131 147-64 4 7 5 14 7 22l-32 3c-4-21-16-35-41-35" id="bm"/><path fill="#3a414a" d="M141-36C126-15 110 5 73 4 37 3 15-17 15-53c-1-64 63-63 125-63 3-35-9-54-41-54-24 1-41 7-42 31l-33-3c5-37 33-52 76-52 45 0 72 20 72 64v82c-1 20 7 32 28 27v20c-31 9-61-2-59-35zM48-53c0 20 12 33 32 33 41-3 63-29 60-74-43 2-92-5-92 41" id="bn"/><path fill="#3a414a" d="M114-163C36-179 61-72 57 0H25l-1-190h30c1 12-1 29 2 39 6-27 23-49 58-41v29" id="bo"/><path fill="#3a414a" d="M177-190C167-65 218 103 67 71c-23-6-38-20-44-43l32-5c15 47 100 32 89-28v-30C133-14 115 1 83 1 29 1 15-40 15-95c0-56 16-97 71-98 29-1 48 16 59 35 1-10 0-23 2-32h30zM94-22c36 0 50-32 50-73 0-42-14-75-50-75-39 0-46 34-46 75s6 73 46 73" id="bp"/><path fill="#3a414a" d="M24-231v-30h32v30H24zM24 0v-190h32V0H24" id="bq"/><path fill="#3a414a" d="M117-194c89-4 53 116 60 194h-32v-121c0-31-8-49-39-48C34-167 62-67 57 0H25l-1-190h30c1 10-1 24 2 32 11-22 29-35 61-36" id="br"/><path fill="#3a414a" d="M16-82v-28h88v28H16" id="bs"/><path fill="#3a414a" d="M135-143c-3-34-86-38-87 0 15 53 115 12 119 90S17 21 10-45l28-5c4 36 97 45 98 0-10-56-113-15-118-90-4-57 82-63 122-42 12 7 21 19 24 35" id="bt"/><path fill="#3a414a" d="M59-47c-2 24 18 29 38 22v24C64 9 27 4 27-40v-127H5v-23h24l9-43h21v43h35v23H59v120" id="bu"/><path fill="#3a414a" d="M84 4C-5 8 30-112 23-190h32v120c0 31 7 50 39 49 72-2 45-101 50-169h31l1 190h-30c-1-10 1-25-2-33-11 22-28 36-60 37" id="bv"/><g id="y"><use transform="matrix(0.05,0,0,0.05,0,0)" xlink:href="#aF"/><use transform="matrix(0.05,0,0,0.05,5,0)" xlink:href="#bm"/><use transform="matrix(0.05,0,0,0.05,14,0)" xlink:href="#aJ"/><use transform="matrix(0.05,0,0,0.05,24,0)" xlink:href="#bn"/><use transform="matrix(0.05,0,0,0.05,34,0)" xlink:href="#bo"/><use transform="matrix(0.05,0,0,0.05,39.95,0)" xlink:href="#bp"/><use transform="matrix(0.05,0,0,0.05,49.95,0)" xlink:href="#bq"/><use transform="matrix(0.05,0,0,0.05,53.900000000000006,0)" xlink:href="#br"/><use transform="matrix(0.05,0,0,0.05,63.900000000000006,0)" xlink:href="#bp"/><use transform="matrix(0.05,0,0,0.05,73.9,0)" xlink:href="#bs"/><use transform="matrix(0.05,0,0,0.05,79.85000000000001,0)" xlink:href="#bt"/><use transform="matrix(0.05,0,0,0.05,88.85000000000001,0)" xlink:href="#bu"/><use transform="matrix(0.05,0,0,0.05,93.85000000000001,0)" xlink:href="#bn"/><use transform="matrix(0.05,0,0,0.05,103.85000000000001,0)" xlink:href="#bu"/><use transform="matrix(0.05,0,0,0.05,108.85000000000001,0)" xlink:href="#bv"/><use transform="matrix(0.05,0,0,0.05,118.85000000000001,0)" xlink:href="#bt"/></g><g id="z"><use transform="matrix(0.05,0,0,0.05,0,0)" xlink:href="#bm"/><use transform="matrix(0.05,0,0,0.05,9,0)" xlink:href="#aJ"/><use transform="matrix(0.05,0,0,0.05,19,0)" xlink:href="#bn"/><use transform="matrix(0.05,0,0,0.05,29,0)" xlink:href="#bo"/><use transform="matrix(0.05,0,0,0.05,34.95,0)" xlink:href="#bp"/><use transform="matrix(0.05,0,0,0.05,44.95,0)" xlink:href="#bq"/><use transform="matrix(0.05,0,0,0.05,48.900000000000006,0)" xlink:href="#br"/><use transform="matrix(0.05,0,0,0.05,58.900000000000006,0)" xlink:href="#bp"/><use transform="matrix(0.05,0,0,0.05,68.9,0)" xlink:href="#bs"/><use transform="matrix(0.05,0,0,0.05,74.85000000000001,0)" xlink:href="#bt"/><use transform="matrix(0.05,0,0,0.05,83.85000000000001,0)" xlink:href="#bu"/><use transform="matrix(0.05,0,0,0.05,88.85000000000001,0)" xlink:href="#bn"/><use transform="matrix(0.05,0,0,0.05,98.85000000000001,0)" xlink:href="#bu"/><use transform="matrix(0.05,0,0,0.05,103.85000000000001,0)" xlink:href="#bv"/><use transform="matrix(0.05,0,0,0.05,113.85000000000001,0)" xlink:href="#bt"/></g><path fill="#3a414a" d="M179-190L93 31C79 59 56 82 12 73V49c39 6 53-20 64-50L1-190h34L92-34l54-156h33" id="bw"/><path fill="#3a414a" d="M33 0v-38h34V0H33" id="bx"/><path fill="#3a414a" d="M210-169c-67 3-38 105-44 169h-31v-121c0-29-5-50-35-48C34-165 62-65 56 0H25l-1-190h30c1 10-1 24 2 32 10-44 99-50 107 0 11-21 27-35 58-36 85-2 47 119 55 194h-31v-121c0-29-5-49-35-48" id="by"/><path fill="#3a414a" d="M24 0v-261h32V0H24" id="bz"/><g id="A"><use transform="matrix(0.05,0,0,0.05,0,0)" xlink:href="#bw"/><use transform="matrix(0.05,0,0,0.05,9,0)" xlink:href="#aK"/><use transform="matrix(0.05,0,0,0.05,19,0)" xlink:href="#bv"/><use transform="matrix(0.05,0,0,0.05,29,0)" xlink:href="#bx"/><use transform="matrix(0.05,0,0,0.05,34,0)" xlink:href="#bm"/><use transform="matrix(0.05,0,0,0.05,43,0)" xlink:href="#aK"/><use transform="matrix(0.05,0,0,0.05,53,0)" xlink:href="#by"/><use transform="matrix(0.05,0,0,0.05,67.95,0)" xlink:href="#aF"/><use transform="matrix(0.05,0,0,0.05,72.95,0)" xlink:href="#bm"/><use transform="matrix(0.05,0,0,0.05,81.95,0)" xlink:href="#bn"/><use transform="matrix(0.05,0,0,0.05,91.95,0)" xlink:href="#bz"/><use transform="matrix(0.05,0,0,0.05,95.9,0)" xlink:href="#bz"/><use transform="matrix(0.05,0,0,0.05,99.85000000000001,0)" xlink:href="#aI"/><use transform="matrix(0.05,0,0,0.05,109.85000000000001,0)" xlink:href="#bn"/><use transform="matrix(0.05,0,0,0.05,119.85000000000001,0)" xlink:href="#bm"/><use transform="matrix(0.05,0,0,0.05,128.85000000000002,0)" xlink:href="#aL"/></g><g id="B"><use transform="matrix(0.05,0,0,0.05,0,0)" xlink:href="#bm"/><use transform="matrix(0.05,0,0,0.05,9,0)" xlink:href="#aJ"/><use transform="matrix(0.05,0,0,0.05,19,0)" xlink:href="#bn"/><use transform="matrix(0.05,0,0,0.05,29,0)" xlink:href="#bo"/><use transform="matrix(0.05,0,0,0.05,34.95,0)" xlink:href="#bp"/><use transform="matrix(0.05,0,0,0.05,44.95,0)" xlink:href="#bq"/><use transform="matrix(0.05,0,0,0.05,48.900000000000006,0)" xlink:href="#br"/><use transform="matrix(0.05,0,0,0.05,58.900000000000006,0)" xlink:href="#bp"/><use transform="matrix(0.05,0,0,0.05,68.9,0)" xlink:href="#bs"/><use transform="matrix(0.05,0,0,0.05,74.85000000000001,0)" xlink:href="#bt"/><use transform="matrix(0.05,0,0,0.05,83.85000000000001,0)" xlink:href="#aH"/><use transform="matrix(0.05,0,0,0.05,93.85000000000001,0)" xlink:href="#bt"/><use transform="matrix(0.05,0,0,0.05,102.85000000000001,0)" xlink:href="#bt"/><use transform="matrix(0.05,0,0,0.05,111.85000000000001,0)" xlink:href="#bq"/><use transform="matrix(0.05,0,0,0.05,115.80000000000001,0)" xlink:href="#aK"/><use transform="matrix(0.05,0,0,0.05,125.80000000000001,0)" xlink:href="#br"/></g><path fill="#3a414a" d="M85-194c31 0 48 13 60 33l-1-100h32l1 261h-30c-2-10 0-23-3-31C134-8 116 4 85 4 32 4 16-35 15-94c0-66 23-100 70-100zm9 24c-40 0-46 34-46 75 0 40 6 74 45 74 42 0 51-32 51-76 0-42-9-74-50-73" id="bA"/><g id="C"><use transform="matrix(0.05,0,0,0.05,0,0)" xlink:href="#bt"/><use transform="matrix(0.05,0,0,0.05,9,0)" xlink:href="#bu"/><use transform="matrix(0.05,0,0,0.05,14,0)" xlink:href="#bn"/><use transform="matrix(0.05,0,0,0.05,24,0)" xlink:href="#bo"/><use transform="matrix(0.05,0,0,0.05,29.950000000000003,0)" xlink:href="#bu"/><use transform="matrix(0.05,0,0,0.05,34.95,0)" xlink:href="#aH"/><use transform="matrix(0.05,0,0,0.05,44.95,0)" xlink:href="#bA"/></g><path fill="#3a414a" d="M101-251c82-7 93 87 43 132L82-64C71-53 59-42 53-27h129V0H18c2-99 128-94 128-182 0-28-16-43-45-43s-46 15-49 41l-32-3c6-41 34-60 81-64" id="bB"/><path fill="#3a414a" d="M101-251c68 0 85 55 85 127S166 4 100 4C33 4 14-52 14-124c0-73 17-127 87-127zm-1 229c47 0 54-49 54-102s-4-102-53-102c-51 0-55 48-55 102 0 53 5 102 54 102" id="bC"/><path fill="#3a414a" d="M27 0v-27h64v-190l-56 39v-29l58-41h29v221h61V0H27" id="bD"/><g id="D"><use transform="matrix(0.05,0,0,0.05,0,0)" xlink:href="#bB"/><use transform="matrix(0.05,0,0,0.05,10,0)" xlink:href="#bC"/><use transform="matrix(0.05,0,0,0.05,20,0)" xlink:href="#bD"/></g><path fill="#3a414a" d="M212-179c-10-28-35-45-73-45-59 0-87 40-87 99 0 60 29 101 89 101 43 0 62-24 78-52l27 14C228-24 195 4 139 4 59 4 22-46 18-125c-6-104 99-153 187-111 19 9 31 26 39 46" id="bE"/><g id="E"><use transform="matrix(0.05,0,0,0.05,0,0)" xlink:href="#bE"/><use transform="matrix(0.05,0,0,0.05,12.950000000000001,0)" xlink:href="#bo"/><use transform="matrix(0.05,0,0,0.05,18.900000000000002,0)" xlink:href="#aH"/><use transform="matrix(0.05,0,0,0.05,28.900000000000002,0)" xlink:href="#bn"/><use transform="matrix(0.05,0,0,0.05,38.900000000000006,0)" xlink:href="#bu"/><use transform="matrix(0.05,0,0,0.05,43.900000000000006,0)" xlink:href="#aH"/><use transform="matrix(0.05,0,0,0.05,53.900000000000006,0)" xlink:href="#bA"/></g><path fill="#3a414a" d="M190 0L58-211 59 0H30v-248h39L202-35l-2-213h31V0h-41" id="bF"/><g id="F"><use transform="matrix(0.05,0,0,0.05,0,0)" xlink:href="#bF"/><use transform="matrix(0.05,0,0,0.05,12.950000000000001,0)" xlink:href="#aK"/></g><path fill="#3a414a" d="M137-103V0h-34v-103L8-248h37l75 118 75-118h37" id="bG"/><g id="G"><use transform="matrix(0.05,0,0,0.05,0,0)" xlink:href="#bG"/><use transform="matrix(0.05,0,0,0.05,10.35,0)" xlink:href="#aH"/><use transform="matrix(0.05,0,0,0.05,20.35,0)" xlink:href="#bt"/></g></defs></g></svg>